<?xml version="1.0" encoding="UTF-8" standalone="no"?>
<!DOCTYPE svg PUBLIC "-//W3C//DTD SVG 1.1//EN" "http://www.w3.org/Graphics/SVG/1.1/DTD/svg11.dtd">
<svg version="1.1" xmlns="http://www.w3.org/2000/svg" xmlns:xlink="http://www.w3.org/1999/xlink" preserveAspectRatio="xMidYMid meet" viewBox="0 0 90 90" width="100" height="100"><defs><path d="M0 90L0 0L90 0L90 90L0 90ZM50 60L60 60L60 80L70 80L70 60L80 60L80 50L50 50L50 60ZM30 80L40 80L40 70L30 70L30 80ZM30 60L20 60L20 70L10 70L10 80L20 80L20 70L30 70L30 60L40 60L40 50L30 50L30 60ZM10 60L20 60L20 50L10 50L10 60ZM10 40L40 40L40 30L20 30L20 20L40 20L40 10L10 10L10 40ZM50 40L80 40L80 30L60 30L60 20L80 20L80 10L50 10L50 40Z" id="c6g67PWSoP"></path></defs><g><g><g><use xlink:href="#c6g67PWSoP" opacity="1" fill="#000000" fill-opacity="1"></use></g></g></g></svg>