<?xml version="1.0" encoding="UTF-8" standalone="no"?>
<!-- Created with Inkscape (http://www.inkscape.org/) -->

<svg
   width="363.82324mm"
   height="307.6427mm"
   viewBox="0 0 363.82324 307.6427"
   version="1.1"
   id="svg1557"
   inkscape:version="1.2 (1:1.2.1+202207142221+cd75a1ee6d)"
   sodipodi:docname="freqai_doc_logo_no_md.svg"
   inkscape:export-filename="/freqai_log.png"
   inkscape:export-xdpi="80.300003"
   inkscape:export-ydpi="80.300003"
   xmlns:inkscape="http://www.inkscape.org/namespaces/inkscape"
   xmlns:sodipodi="http://sodipodi.sourceforge.net/DTD/sodipodi-0.dtd"
   xmlns:xlink="http://www.w3.org/1999/xlink"
   xmlns="http://www.w3.org/2000/svg"
   xmlns:svg="http://www.w3.org/2000/svg"
   xmlns:rdf="http://www.w3.org/1999/02/22-rdf-syntax-ns#"
   xmlns:cc="http://creativecommons.org/ns#"
   xmlns:dc="http://purl.org/dc/elements/1.1/">
  <defs
     id="defs1551">
    <linearGradient
       id="linearGradient1933"
       inkscape:collect="always">
      <stop
         id="stop1929"
         offset="0"
         style="stop-color:#800080;stop-opacity:1" />
      <stop
         id="stop1931"
         offset="1"
         style="stop-color:#c83737;stop-opacity:1" />
    </linearGradient>
    <linearGradient
       inkscape:collect="always"
       id="linearGradient1142">
      <stop
         style="stop-color:#800080;stop-opacity:1"
         offset="0"
         id="stop1138" />
      <stop
         style="stop-color:#c83737;stop-opacity:1"
         offset="1"
         id="stop1140" />
    </linearGradient>
    <inkscape:path-effect
       effect="skeletal"
       id="path-effect978"
       is_visible="true"
       lpeversion="1"
       pattern="m 456.42212,518.86798 c 0,-2.76 2.24,-5 5,-5 2.76,0 5,2.24 5,5 0,2.76 -2.24,5 -5,5 -2.76,0 -5,-2.24 -5,-5 z"
       copytype="single_stretched"
       prop_scale="0.41275764"
       scale_y_rel="false"
       spacing="0"
       normal_offset="0"
       tang_offset="0"
       prop_units="false"
       vertical_pattern="false"
       hide_knot="false"
       fuse_tolerance="0" />
    <inkscape:path-effect
       fuse_tolerance="0"
       hide_knot="false"
       vertical_pattern="false"
       prop_units="false"
       tang_offset="0"
       normal_offset="0"
       spacing="0"
       scale_y_rel="false"
       prop_scale="0.47278174"
       copytype="single_stretched"
       pattern="m 376.73355,388.79154 c 0,-2.76 2.24,-5 5,-5 2.76,0 5,2.24 5,5 0,2.76 -2.24,5 -5,5 -2.76,0 -5,-2.24 -5,-5 z"
       lpeversion="1"
       is_visible="true"
       id="path-effect959"
       effect="skeletal" />
    <inkscape:path-effect
       fuse_tolerance="0"
       hide_knot="false"
       vertical_pattern="false"
       prop_units="false"
       tang_offset="0"
       normal_offset="0"
       spacing="0"
       scale_y_rel="false"
       prop_scale="0.33839727"
       copytype="single_stretched"
       pattern="m 118.82504,134.72886 c 0,-2.76 2.24,-5 5,-5 2.76,0 5,2.24 5,5 0,2.76 -2.24,5 -5,5 -2.76,0 -5,-2.24 -5,-5 z"
       lpeversion="1"
       is_visible="true"
       id="path-effect902"
       effect="skeletal" />
    <linearGradient
       inkscape:collect="always"
       xlink:href="#linearGradient1142"
       id="linearGradient1147"
       gradientUnits="userSpaceOnUse"
       x1="153.87447"
       y1="56.015697"
       x2="249.15274"
       y2="26.575241" />
    <inkscape:path-effect
       effect="skeletal"
       id="path-effect883"
       is_visible="true"
       lpeversion="1"
       pattern="M 0,5 C 0,2.24 2.24,0 5,0 7.76,0 10,2.24 10,5 10,7.76 7.76,10 5,10 2.24,10 0,7.76 0,5 Z"
       copytype="single_stretched"
       prop_scale="0.47303263"
       scale_y_rel="false"
       spacing="0"
       normal_offset="0"
       tang_offset="0"
       prop_units="false"
       vertical_pattern="false"
       hide_knot="false"
       fuse_tolerance="0" />
    <linearGradient
       inkscape:collect="always"
       xlink:href="#linearGradient1142"
       id="linearGradient2187"
       gradientUnits="userSpaceOnUse"
       x1="293.50531"
       y1="131.64389"
       x2="301.36768"
       y2="81.289787" />
    <linearGradient
       inkscape:collect="always"
       xlink:href="#linearGradient1142"
       id="linearGradient2189"
       gradientUnits="userSpaceOnUse"
       x1="78.344269"
       y1="168.38782"
       x2="229.03004"
       y2="-63.514065" />
    <linearGradient
       inkscape:collect="always"
       xlink:href="#linearGradient1142"
       id="linearGradient2481"
       gradientUnits="userSpaceOnUse"
       x1="371.62622"
       y1="104.48698"
       x2="378.23627"
       y2="75.905518" />
    <linearGradient
       inkscape:collect="always"
       xlink:href="#linearGradient1142"
       id="linearGradient1917"
       x1="94.333183"
       y1="336.74393"
       x2="304.21649"
       y2="-40.816475"
       gradientUnits="userSpaceOnUse" />
    <linearGradient
       inkscape:collect="always"
       xlink:href="#linearGradient1933"
       id="linearGradient1927"
       gradientUnits="userSpaceOnUse"
       x1="192.64189"
       y1="223.87135"
       x2="317.15186"
       y2="-0.12421786" />
  </defs>
  <sodipodi:namedview
     id="base"
     pagecolor="#ffffff"
     bordercolor="#666666"
     borderopacity="1.0"
     inkscape:pageopacity="0.0"
     inkscape:pageshadow="2"
     inkscape:zoom="0.35355339"
     inkscape:cx="596.79812"
     inkscape:cy="694.37886"
     inkscape:document-units="mm"
     inkscape:current-layer="layer2"
     showgrid="false"
     fit-margin-top="0"
     fit-margin-left="0"
     fit-margin-right="0"
     fit-margin-bottom="0"
     inkscape:window-width="1846"
     inkscape:window-height="1016"
     inkscape:window-x="0"
     inkscape:window-y="0"
     inkscape:window-maximized="1"
     inkscape:snap-global="false"
     inkscape:showpageshadow="0"
     inkscape:pagecheckerboard="0"
     inkscape:deskcolor="#d1d1d1" />
  <metadata
     id="metadata1554">
    <rdf:RDF>
      <cc:Work
         rdf:about="">
        <dc:format>image/svg+xml</dc:format>
        <dc:type
           rdf:resource="http://purl.org/dc/dcmitype/StillImage" />
      </cc:Work>
    </rdf:RDF>
  </metadata>
  <g
     inkscape:groupmode="layer"
     id="layer10"
     inkscape:label="below"
     style="display:inline"
     transform="translate(-3.0082758,-5.9666678)" />
  <g
     inkscape:groupmode="layer"
     id="layer3"
     inkscape:label="STRINGS"
     style="display:inline"
     transform="translate(23.71744,-1.9601714)">
    <g
       transform="translate(-26.725716,-4.0064965)"
       id="g1909"
       style="display:inline;fill:url(#linearGradient1917);fill-opacity:1">
      <g
         id="g1939"
         style="fill:#000100;fill-opacity:1">
        <g
           id="g1980"
           style="fill:#000000;fill-opacity:1">
          <path
             transform="matrix(1.0227138,0,0,1.0923454,-62.375629,65.947122)"
             inkscape:connector-curvature="0"
             style="display:inline;opacity:1;fill:#000000;fill-opacity:1;stroke:none;stroke-width:0.264583px;stroke-linecap:butt;stroke-linejoin:miter;stroke-opacity:1"
             d="m 266.32136,50.725653 c 0.24666,0.34579 -7.97788,8.342276 -26.22382,14.73088 -7.24598,2.533621 -15.77758,4.481015 -25.80626,5.394041 -7.80487,0.710575 -15.62741,0.763515 -24.60618,0.630177 -7.10056,-0.102515 -15.37349,-0.342644 -23.09918,0.04518 -6.98666,0.355519 -14.3529,1.246148 -21.37728,3.473919 -6.97851,2.200958 -13.76293,5.827963 -19.73033,10.773148 -7.23031,5.971496 -13.21751,13.650026 -18.4504,22.28169 -7.71197,11.30811 -13.780321,23.77515 -19.281337,37.15557 1.295375,-2.3837 2.694224,-4.71512 4.192806,-6.9856 5.836914,-8.84339 12.980981,-16.45315 20.947101,-22.55626 10.62125,-7.27796 22.31318,-12.27508 33.83042,-15.689311 12.27636,-3.642327 24.65859,-5.659686 36.2496,-6.893641 0,0 2e-5,-10e-7 2e-5,-10e-7 12.03309,-1.282998 24.15119,-1.797386 34.78058,-2.16223 11.26459,-0.389119 19.86622,-0.525899 29.44169,-1.406911 4.09388,-0.377806 7.84924,-0.855525 11.47336,-1.637412 3.18585,-0.693967 6.04795,-1.536888 8.60531,-2.849228 2.21977,-1.150499 4.08494,-2.575182 5.29519,-4.367908 1.34174,-1.920808 1.87087,-4.302373 1.91674,-6.474343 0.0733,-3.475689 -0.97184,-6.941781 -1.92033,-9.602842 -3.19334,-8.90044 -6.36181,-13.294589 -6.11214,-13.451663 0.24967,-0.157075 3.87295,3.848355 7.67284,12.841713 1.14175,2.686839 2.40195,6.281391 2.50827,10.203303 0.0666,2.503277 -0.46622,5.321701 -2.03856,7.820298 -1.456,2.250702 -3.58735,4.048489 -6.07155,5.390925 -2.81347,1.533986 -5.89422,2.555776 -9.20041,3.349538 -3.76725,0.911916 -7.64484,1.504554 -11.7989,1.977 -9.64024,1.09912 -18.4609,1.414892 -29.61258,1.971722 -10.58225,0.530571 -22.64632,1.198502 -34.47024,2.5876 0,10e-7 -2e-5,2e-6 -2e-5,2e-6 -11.41113,1.342488 -23.52949,3.414879 -35.41817,7.033139 -11.14376,3.39447 -22.38681,8.24563 -32.47462,15.22018 -8.62388,5.31456 -16.51649,12.04079 -23.182072,19.92101 -1.711299,2.02314 -3.326286,4.10426 -4.840621,6.23506 4.087878,-14.26449 8.922214,-27.70649 15.564853,-40.02514 5.43579,-8.92853 11.81856,-16.959506 19.57969,-23.30942 6.46827,-5.275585 13.77515,-9.090373 21.29545,-11.380298 7.54855,-2.286045 15.2578,-3.139455 22.45583,-3.393724 7.96548,-0.286584 16.27109,0.08204 23.35306,0.311442 8.95318,0.286298 16.61396,0.397407 24.27686,-0.12155 9.8236,-0.665207 18.16345,-2.307894 25.31931,-4.527563 18.00102,-5.575038 26.70936,-12.858284 26.95602,-12.512494 z"
             id="path881-9-5-0"
             inkscape:path-effect="#path-effect959"
             inkscape:original-d="M 266.32136,50.725653 C 194.12909,102.22106 131.88871,17.856946 87.63343,145.44733 146.29765,51.188567 316.54641,130.76552 266.44692,51.132911"
             sodipodi:nodetypes="ccc"
             class="UnoptimicedTransforms" />
          <path
             transform="matrix(1.0227138,0,0,1.0923454,-103.51834,34.329414)"
             inkscape:connector-curvature="0"
             sodipodi:nodetypes="ccc"
             id="path881-9-5-0-6"
             d="m 197.43046,43.746047 c 0.21962,-0.03042 1.26396,2.949502 0.39737,8.467608 -0.37714,2.393398 -1.16605,5.155767 -2.61027,8.177187 -2.40166,5.015218 -6.03905,9.884367 -11.40353,15.300059 0,2e-6 0,4e-6 -1e-5,6e-6 -4.80463,4.863289 -10.05514,9.290862 -16.48494,14.41119 -5.6135,4.472948 -11.7472,9.122519 -18.03186,14.255753 -5.35999,4.38127 -11.05765,9.27543 -16.09389,14.76782 -4.22003,4.61682 -8.22663,9.86077 -10.72506,15.79928 -2.26658,5.35456 -3.22736,11.46066 -2.31117,17.41063 0.56772,7.66697 3.62004,14.98286 7.69821,21.83949 -2.23986,-1.8165 -4.43315,-3.73474 -6.53504,-5.76108 -4.57035,-4.40608 -8.57799,-9.19761 -11.73422,-14.44355 -3.36869,-6.65943 -5.30249,-13.89656 -5.43043,-21.12632 -0.10504,-7.05346 1.48947,-13.87876 4.07351,-19.97693 2.91517,-6.87841 7.00453,-12.970529 11.37893,-18.25732 11.23916,-13.583598 25.22502,-23.541865 36.31062,-30.503901 0,0 10e-6,-4e-6 10e-6,-4e-6 24.41607,-15.353116 41.36352,-20.879119 41.5761,-20.381331 0.21258,0.497788 -16.31322,6.940906 -40.05286,22.736277 1e-5,10e-7 0,5e-6 0,5e-6 -10.76011,7.168033 -24.35413,17.222927 -34.99673,30.463317 -4.13912,5.149737 -7.97954,10.982867 -10.6342,17.439087 -2.34446,5.70109 -3.78409,12.00902 -3.63531,18.40493 0.13215,6.55097 1.95313,13.18616 5.07305,19.34867 2.26803,5.47284 5.37626,10.57864 9.04577,15.39444 1.68733,2.21442 3.47142,4.33883 5.30872,6.37671 -5.42367,-6.23366 -9.73097,-13.27916 -11.45819,-20.95218 -0.98894,-6.7825 0.11434,-13.60346 2.69653,-19.56493 2.83577,-6.51039 7.12851,-12.07057 11.59029,-16.8082 5.30744,-5.65266 11.18611,-10.57969 16.67264,-14.91956 6.43359,-5.092902 12.65405,-9.633206 18.32946,-13.959577 6.52405,-4.976469 11.75477,-9.152109 16.61464,-13.780068 0,-2e-6 10e-6,-4e-6 10e-6,-6e-6 5.41001,-5.165894 9.04753,-9.614214 11.5779,-14.315134 1.51494,-2.808833 2.41892,-5.364545 2.94351,-7.6169 1.2081,-5.173199 0.63082,-8.195045 0.85044,-8.225468 z"
             style="display:inline;opacity:1;fill:#000000;fill-opacity:1;stroke:none;stroke-width:0.264583px;stroke-linecap:butt;stroke-linejoin:miter;stroke-opacity:1"
             inkscape:original-d="M 197.43046,43.746047 C 203.78504,89.620463 83.040697,112.45505 127.73927,174.03157 67.757216,117.32657 146.59245,65.466829 197.50478,43.724638"
             inkscape:path-effect="#path-effect978"
             class="UnoptimicedTransforms" />
          <path
             transform="matrix(1.0227138,0,0,1.0923454,-62.375629,65.947122)"
             inkscape:connector-curvature="0"
             sodipodi:nodetypes="ccc"
             inkscape:original-d="M 338.69593,78.188464 C 351.66944,158.8679 307.7394,119.25049 261.12447,127.02831 366.72133,90.817837 335.68311,88.910449 412.83102,79.07536"
             inkscape:path-effect="#path-effect883"
             id="path881"
             d="m 338.69593,78.188464 c 0.49248,-0.07919 3.3801,8.915273 3.64691,24.953626 0.0892,4.61727 -0.1108,10.55624 -2.18945,16.22457 -1.2491,3.41283 -3.51339,6.88005 -7.02949,9.22006 -3.18537,2.03978 -6.9108,3.01105 -10.71996,3.31059 -4.32758,0.36681 -8.61596,0.0765 -13.06414,-0.3954 0,0 -1e-5,0 -1e-5,0 -4.85825,-0.50718 -9.81996,-1.2337 -14.88816,-1.8578 -10.52725,-1.92207 -22.25938,-3.65993 -33.51458,-2.56837 5.56514,-2.14789 11.23402,-4.37262 16.96404,-6.67029 14.09948,-5.65373 27.22087,-11.20878 39.76758,-16.84629 10.34679,-4.204445 20.04709,-8.578761 29.2102,-12.254895 3.86403,-1.55087 7.5962,-2.912625 11.31631,-4.062522 4.44997,-1.373998 8.80842,-2.424611 12.87075,-3.255903 25.55615,-5.226312 41.6821,-5.561535 41.7651,-4.910481 0.083,0.651054 -16.04487,2.199237 -41.03765,8.188979 -3.95341,0.947245 -8.17817,2.096907 -12.44827,3.538622 -3.57249,1.204947 -7.16926,2.614455 -10.93178,4.214907 -8.99368,3.826281 -18.60554,8.342603 -29.02526,12.707823 -12.83398,4.83575 -26.25198,9.37248 -40.70852,13.92084 -5.86346,1.84478 -11.6791,3.62297 -17.36766,5.33435 11.65665,-2.73331 23.3668,-2.48912 33.70665,-1.70227 5.13345,0.70069 10.05152,1.49994 14.79046,2.07946 0,0 10e-6,0 10e-6,0 4.36154,0.52566 8.36803,0.89758 12.29878,0.63761 3.41571,-0.24885 6.55597,-0.91553 9.05656,-2.49093 2.75513,-1.64741 4.69419,-4.48749 5.88989,-7.34626 2.04294,-4.90571 2.44367,-10.54405 2.602,-15.03685 0.50756,-15.585175 -1.45279,-24.853983 -0.96031,-24.933176 z"
             style="display:inline;opacity:1;fill:#000000;fill-opacity:1;stroke:none;stroke-width:0.264583px;stroke-linecap:butt;stroke-linejoin:miter;stroke-opacity:1"
             class="UnoptimicedTransforms" />
        </g>
      </g>
    </g>
  </g>
  <g
     inkscape:groupmode="layer"
     id="layer7"
     inkscape:label="freq"
     style="display:inline"
     transform="translate(-3.0082758,-5.9666678)">
    <g
       transform="matrix(0.99993492,0,0,0.99993492,13.017271,44.180298)"
       id="g2300"
       style="display:inline;fill:#ffffff">
      <g
         id="g2294"
         style="stroke-width:0.2593">
        <path
           id="path2276"
           d="m 105.4,261.6 c -19.47,-1.85 -35.23,-16.54 -38.53,-35.89 -0.4581,-2.692 -0.5147,-3.864 -0.4014,-8.32 0.1862,-7.325 1.102,-11.04 4.352,-17.63 2.345,-4.762 4.501,-7.705 8.502,-11.6 6.376,-6.215 13.48,-9.949 22.12,-11.64 4.197,-0.819 11.28,-0.819 15.47,0 19.33,3.772 33.33,19.33 35.07,38.98 1.593,17.94 -9.27,35.69 -26.24,42.86 -6.231,2.634 -13.89,3.851 -20.36,3.236 z m 10.85,-9.601 c 6.512,-1.319 12.3,-4.492 17.2,-9.425 4.388,-4.421 7.364,-9.819 8.95,-16.23 0.5289,-2.139 0.6104,-3.112 0.6186,-7.391 0.008,-3.87 -0.0941,-5.4 -0.4733,-7.131 -2.953,-13.48 -13.02,-23.46 -26.61,-26.37 -3.064,-0.6563 -10.36,-0.6537 -13.48,0.005 -7.184,1.515 -12.92,4.712 -17.96,10 -4.569,4.801 -7.418,10.37 -8.793,17.18 -0.4928,2.44 -0.3983,10.19 0.1562,12.8 2.865,13.5 13.06,23.82 26.23,26.55 1.415,0.2939 2.981,0.5846 3.48,0.6458 1.924,0.2362 8.245,-0.1388 10.69,-0.6345 z"
           inkscape:connector-curvature="0" />
        <path
           id="path2278"
           d="m 83.16,168.3 c -2.404,-0.5663 -4.612,-2.45 -5.748,-4.904 l -0.6606,-1.426 -0.0025,-13.49 c -0.0016,-7.813 0.1111,-14.4 0.2674,-15.64 0.7322,-5.839 4.019,-12.22 8.409,-16.33 4.327,-4.048 10.12,-6.683 16.08,-7.311 2.959,-0.3119 11.38,-0.3126 14.79,-9.7e-4 12.42,1.136 22.89,11.12 24.51,23.38 0.1875,1.421 0.2592,6.997 0.2081,16.17 l -0.078,14 -0.7641,1.379 c -1.522,2.748 -3.9,4.154 -7.411,4.381 l -2.284,0.148 -0.0958,-6.066 c -0.0885,-5.606 -0.1406,-6.174 -0.687,-7.482 -1.273,-3.046 -3.532,-5.171 -6.626,-6.229 -1.454,-0.4975 -2.167,-0.524 -14.06,-0.524 -11.95,0 -12.61,0.0246 -14.16,0.5343 -3.001,0.9858 -5.57,3.443 -6.693,6.402 -0.5024,1.323 -0.5819,2.158 -0.7042,7.391 l -0.1379,5.9 -1.584,-0.026 c -0.871,-0.0144 -2.023,-0.1296 -2.56,-0.2562 z m 16.05,-27.61 c 1.832,-0.5148 4.295,-2.225 5.43,-3.77 1.944,-2.648 2.549,-5.597 1.82,-8.872 -2.544,-11.44 -19.12,-10.91 -20.92,0.6703 -0.738,4.741 1.663,9.408 5.848,11.37 2.763,1.293 4.817,1.452 7.827,0.6065 z m 27.65,-0.5658 c 2.261,-1.061 4.128,-2.924 5.204,-5.195 0.7676,-1.62 0.828,-1.947 0.828,-4.471 0,-2.523 -0.0607,-2.851 -0.8259,-4.466 -3.247,-6.855 -12.03,-8.484 -17.29,-3.209 -5.586,5.601 -3.419,15.18 4.035,17.83 1.06,0.3775 1.929,0.4701 3.834,0.409 2.128,-0.0682 2.702,-0.1906 4.212,-0.8989 z"
           inkscape:connector-curvature="0" />
        <path
           id="path2280"
           d="m 114.3,168.4 -1.75,-0.0907 v -12.68 h 3.915 c 4.42,0 5.304,0.2398 6.194,1.679 0.4788,0.7747 0.5227,1.285 0.5227,6.066 v 5.221 l -3.566,-0.0508 c -1.961,-0.0279 -4.353,-0.0916 -5.316,-0.1415 z"
           inkscape:connector-curvature="0" />
        <path
           id="path2282"
           d="m 94.68,163.2 c 0.09582,-5.9 0.1486,-6.123 1.695,-7.142 0.6299,-0.4153 1.275,-0.4798 4.812,-0.4813 l 4.084,-0.002 v 6.208 c 0,4.044 -0.0946,6.267 -0.2715,6.376 -0.1493,0.0923 -2.552,0.2339 -5.339,0.3147 l -5.068,0.1469 z"
           inkscape:connector-curvature="0" />
        <path
           id="path2284"
           d="m 67.36,146.2 c -0.2853,-0.1168 -0.752,-0.4717 -1.037,-0.7888 -0.4881,-0.5425 -0.5186,-0.9415 -0.5186,-6.767 v -6.191 l 0.6483,-0.6457 c 0.4764,-0.4744 1.049,-0.6924 2.158,-0.8218 l 1.51,-0.1761 -0.1396,0.8807 c -0.07681,0.4844 -0.2152,4.002 -0.3076,7.818 l -0.1679,6.937 -0.8134,-0.0164 c -0.4474,-0.009 -1.047,-0.112 -1.332,-0.2287 z"
           inkscape:connector-curvature="0" />
        <path
           id="path2286"
           d="m 94.2,133.3 c -2.224,-1.356 -2.107,-4.661 0.2077,-5.859 1.658,-0.8575 3.699,-0.3058 4.652,1.258 1.835,3.01 -1.81,6.461 -4.86,4.601 z"
           inkscape:connector-curvature="0" />
        <path
           id="path2288"
           d="m 121.5,133.7 c -2.088,-0.6881 -3.072,-2.404 -2.49,-4.344 0.7643,-2.551 4.061,-3.203 5.926,-1.172 1.758,1.914 0.7792,4.806 -1.88,5.554 -0.4575,0.1287 -1.098,0.1132 -1.556,-0.0376 z"
           inkscape:connector-curvature="0" />
        <path
           id="path2290"
           d="m 148.3,140.3 c 0,-3.402 -0.0769,-6.922 -0.1709,-7.821 l -0.1709,-1.635 1.662,0.1679 c 1.409,0.1423 1.77,0.2873 2.375,0.953 l 0.7131,0.7851 v 5.814 c 0,3.223 -0.1148,6.116 -0.2577,6.491 -0.31,0.8155 -1.645,1.431 -3.105,1.431 h -1.046 z"
           inkscape:connector-curvature="0" />
        <path
           id="path2292"
           d="m 103.5,241 c -0.7859,-0.6613 -0.7979,-0.7077 -0.7979,-3.089 v -2.418 l -2.826,-0.0878 c -4.372,-0.1358 -3.916,1.783 -3.916,-16.49 v -15.41 l 0.5835,-0.4868 c 0.4895,-0.4083 1.033,-0.4881 3.371,-0.4954 l 2.788,-0.009 v -2.574 c 0,-2.49 0.0231,-2.593 0.7019,-3.126 0.7697,-0.6054 1.672,-0.5377 2.475,0.1859 0.3738,0.3368 0.4538,0.8592 0.4538,2.962 v 2.553 h 4.149 v -2.574 c 0,-2.472 0.0271,-2.596 0.6833,-3.112 0.3758,-0.2956 0.8852,-0.5375 1.132,-0.5375 0.2468,0 0.7562,0.2419 1.132,0.5375 0.655,0.5152 0.6833,0.6425 0.6833,3.075 v 2.537 l 2.06,0.1412 c 3.312,0.227 5.764,1.62 7.522,4.274 1.022,1.543 1.359,2.83 1.338,5.103 -0.0195,2.078 -0.8599,4.137 -2.443,5.987 l -0.8894,1.039 1.138,1.294 c 1.975,2.244 2.75,5.198 2.067,7.868 -1.146,4.474 -4.783,7.289 -9.431,7.299 l -1.361,0.003 v 2.418 c 0,2.193 -0.056,2.471 -0.6002,2.982 -0.75,0.7046 -1.833,0.7241 -2.512,0.0452 -0.4458,-0.4458 -0.5186,-0.8644 -0.5186,-2.982 v -2.464 h -4.149 v 2.313 c 0,2.731 -0.0901,3.032 -1.056,3.532 -0.9314,0.4817 -0.8394,0.4968 -1.777,-0.292 z m 15.04,-10.05 c 1.688,-0.8913 2.595,-2.33 2.749,-4.358 0.1616,-2.138 -0.5574,-3.607 -2.363,-4.828 l -1.246,-0.8428 H 99.59 v 10.63 h 8.906 c 8.822,0 8.916,-0.006 10.05,-0.6034 z m -0.3133,-14.42 c 4.042,-2.062 4.163,-7.616 0.2086,-9.58 -1.153,-0.5724 -1.628,-0.6274 -6.481,-0.7483 -2.88,-0.0718 -6.842,-0.0443 -8.803,0.0608 l -3.566,0.1914 v 10.58 h 8.827 c 8.226,0 8.894,-0.0342 9.814,-0.5034 z"
           inkscape:connector-curvature="0" />
      </g>
      <path
         id="path2296"
         d="m 108,87.11 c -1.062,-0.4155 -1.351,-0.6802 -1.843,-1.684 -0.3988,-0.815 -0.4784,-1.19 -0.4081,-1.922 0.1746,-1.817 1.643,-3.119 3.519,-3.119 3.101,0 4.679,3.68 2.509,5.85 -1.008,1.008 -2.533,1.361 -3.776,0.8744 z"
         inkscape:connector-curvature="0"
         style="stroke-width:0.1834" />
      <rect
         id="rect2298"
         ry="2.1700001"
         height="21.709999"
         width="51.759998"
         y="146.5"
         x="83.160004"
         style="stroke-width:0.2855" />
    </g>
    <path
       id="path2302"
       d="m 122.41015,117.20555 c -1.58089,-0.0217 -3.30878,0.38637 -4.92668,1.18392 -2.68482,1.32292 -4.86868,4.10673 -5.63763,7.18753 -0.40747,1.6319 -0.24988,4.31472 0.34548,5.88162 1.02593,2.70082 2.87981,4.87168 5.15766,6.04061 l 1.27792,0.65575 5.3e-4,3.89275 10e-4,3.89375 -0.38508,0.005 c -6.0906,0.0849 -11.30926,1.24992 -16.13895,3.60077 -3.730759,1.81588 -6.627569,3.95874 -9.746359,7.20753 -2.81182,2.9298 -5.40665,6.80755 -6.69057,9.99934 l -0.49037,1.21793 -2.82581,0.0932 c -3.1048,0.10279 -4.26672,0.33417 -5.80763,1.15692 -2.00886,1.07293 -3.41977,2.69082 -4.39471,5.04167 l -0.49637,1.19792 v 14.88904 l 0.43468,1.11492 c 1.13592,2.91281 3.44777,5.10667 6.22859,5.90762 0.55876,0.16109 1.75288,0.34128 2.65283,0.40007 l 1.63689,0.1068 0.10329,4.70669 c 0.0909,4.14073 0.14779,4.85668 0.47477,5.95961 1.6199,5.46465 5.69463,9.46439 11.02929,10.8293 0.76655,0.19568 1.4159,0.37758 1.4439,0.40458 0.0271,0.027 -0.35808,0.30458 -0.85584,0.61665 -2.62283,1.6449 -5.66164,4.12473 -8.35846,6.82355 -3.62576,3.62777 -6.43158,7.27053 -8.37845,10.8793 -1.04694,1.93987 -0.85675,1.82988 -2.32085,1.33692 -1.85088,-0.62226 -1.92188,-0.81925 -1.68789,-4.6797 0.17358,-2.86281 -0.32058,-4.67869 -1.67889,-6.16659 -2.38785,-2.61583 -6.1676,-2.56184 -8.98142,0.12838 -0.73215,0.69975 -2.44184,3.0658 -2.44184,3.37978 0,0.0551 -0.38468,0.71455 -0.85534,1.46591 -0.47057,0.75095 -0.85585,1.4039 -0.85585,1.44991 0,0.0465 -0.30788,0.58766 -0.68435,1.20292 -0.37648,0.61516 -0.68486,1.15592 -0.68486,1.20292 0,0.16919 -2.27085,3.77076 -2.60983,4.14073 -0.19219,0.20899 -0.62156,0.46977 -0.95414,0.57956 -0.54546,0.17999 -0.63396,0.16309 -0.90644,-0.17349 -0.49847,-0.61556 -0.54506,-1.65189 -0.16999,-3.78175 0.19069,-1.08193 0.38798,-2.15986 0.43867,-2.39584 0.0507,-0.23529 0.24599,-1.27492 0.43368,-2.30985 0.18768,-1.03494 0.38167,-2.07487 0.43117,-2.30985 0.085,-0.40448 0.73055,-3.79975 0.86234,-4.53571 0.0743,-0.41437 0.75545,-4.13973 0.84475,-4.6207 0.035,-0.18828 0.22738,-1.22792 0.42767,-2.30985 0.20029,-1.08194 0.39317,-2.12187 0.42817,-2.30986 1.02093,-5.49064 1.08293,-6.48157 0.51487,-8.27246 -0.44837,-1.41391 -0.99944,-2.33085 -1.88888,-3.13979 -2.43484,-2.21486 -6.1306,-1.87288 -8.75043,0.81075 -0.88265,0.90404 -1.37592,1.67489 -2.65183,4.14173 -1.09393,2.11486 -2.33885,4.5087 -4.24973,8.17147 -0.68755,1.31792 -1.55389,2.98981 -1.92487,3.71676 -0.71175,1.39291 -1.92488,2.70083 -2.50584,2.70083 -0.18399,0 -1.65189,-0.45488 -3.26278,-1.01094 -2.07987,-0.71785 -3.0868,-0.98603 -3.47678,-0.92504 -1.91787,0.30008 -2.80682,2.38085 -1.68089,3.93474 0.47107,0.65026 0.64616,0.73386 3.86275,1.84689 3.82875,1.32491 4.84968,1.4469 6.60157,0.78964 1.04993,-0.39397 3.0738,-1.90987 3.49577,-2.61783 0.15209,-0.25538 0.37118,-0.56376 0.48687,-0.68485 0.11569,-0.12109 0.45147,-0.68216 0.74605,-1.24692 0.29458,-0.56477 0.90014,-1.71989 1.34591,-2.56683 0.86405,-1.6409 2.57584,-4.95269 4.86569,-9.4124 0.97104,-1.89188 1.6169,-2.93681 2.08987,-3.37978 1.26791,-1.18992 2.19585,-0.63736 2.19585,1.30792 0,0.60396 -0.38857,3.0748 -0.77005,4.89568 -0.0906,0.43267 -0.74985,3.90375 -0.86134,4.53471 -0.0332,0.18819 -0.18499,0.99684 -0.33688,1.79688 -0.15189,0.80005 -0.30438,1.6089 -0.33888,1.79689 -0.0872,0.47576 -0.77665,4.20272 -0.85484,4.6207 -0.0352,0.18818 -0.21619,1.15092 -0.40207,2.13886 -0.18589,0.98793 -0.53687,2.87481 -0.77965,4.19272 -0.24279,1.31792 -0.48548,2.58883 -0.53947,2.82382 -0.054,0.23528 -0.1025,1.12093 -0.1073,1.96787 -0.0198,3.46278 1.79089,6.1266 4.6627,6.86256 2.57084,0.65854 5.17367,-0.48767 7.14454,-3.1458 0.48567,-0.65516 0.88344,-1.27792 0.88344,-1.38391 0,-0.10619 0.0768,-0.19299 0.17099,-0.19299 0.0941,0 0.17099,-0.088 0.17099,-0.19559 0,-0.10749 0.30838,-0.68335 0.68485,-1.27991 0.37648,-0.59616 0.68436,-1.12293 0.68436,-1.17092 0,-0.0477 0.30788,-0.58967 0.68436,-1.20493 0.37647,-0.61516 0.68485,-1.19392 0.68485,-1.28691 0,-0.0925 0.0769,-0.16849 0.17099,-0.16849 0.0941,0 0.17099,-0.0875 0.17099,-0.19499 0,-0.16539 0.44417,-0.94984 1.4929,-2.63483 0.11509,-0.18489 0.33558,-0.58606 0.48987,-0.89144 0.34708,-0.68715 1.30092,-1.5429 1.88288,-1.68889 0.33758,-0.0847 0.50127,-0.018 0.72395,0.29428 0.52937,0.74215 0.53117,0.76565 0.29028,3.91775 -0.22138,2.89681 0.51357,5.08266 2.23886,6.65956 0.81994,0.74935 1.20892,0.94694 3.44777,1.74989 l 0.38358,0.13789 -0.57207,1.5879 c -2.06986,5.74261 -2.9728,11.59924 -2.78981,18.09881 0.16729,5.95461 0.96813,10.32933 2.88281,15.74897 5.24366,14.82904 17.29887,26.48828 32.377889,31.30797 4.04274,1.29091 9.14441,2.15285 13.53912,2.28586 h 5.3e-4 c 5.81362,0.17637 12.2792,-0.72946 17.36887,-2.43585 12.83916,-4.29972 23.39847,-13.31914 29.41808,-25.14837 3.71776,-7.29952 5.50765,-14.67903 5.51265,-22.73852 0.007,-8.79142 -2.06087,-17.04888 -6.10261,-24.3684 -0.60776,-1.10193 -1.10493,-2.08087 -1.10493,-2.17686 0,-0.21919 1.72389,-1.50191 2.32685,-1.73089 0.60976,-0.23189 1.91588,0.39228 3.0638,1.46391 0.47057,0.43926 1.06693,0.92394 1.32592,1.07693 0.25878,0.15299 0.47076,0.32798 0.47076,0.38907 0,0.0609 0.47547,0.32418 1.05694,0.58506 1.41391,0.63456 3.59376,0.78485 4.94968,0.34148 3.74975,-1.22592 5.06367,-5.67063 2.9838,-10.09934 -0.22118,-0.47057 -0.57206,-1.24092 -0.77965,-1.71089 -0.20759,-0.47057 -0.62996,-1.39491 -0.93854,-2.05387 -0.30858,-0.65885 -0.81044,-1.73688 -1.11592,-2.39585 -0.30508,-0.65886 -0.84485,-1.81387 -1.19893,-2.56682 -0.94274,-2.00288 -1.11692,-2.68784 -0.88234,-3.47079 0.15369,-0.51296 0.28518,-0.65435 0.63526,-0.68335 1.18492,-0.0981 1.14293,-0.13759 15.309,14.33906 3.24679,3.31779 6.31459,6.33659 6.81556,6.70957 1.63989,1.21793 2.61483,1.5539 4.5637,1.57189 1.5319,0.0143 1.80988,-0.0326 2.65283,-0.44716 2.51784,-1.23891 3.73876,-3.86376 3.24779,-6.98155 -0.24818,-1.5749 -0.42827,-2.00287 -2.52384,-5.98961 -0.42047,-0.80005 -1.32291,-2.53284 -2.00387,-3.85075 -1.23492,-2.38784 -3.0088,-5.79362 -3.60976,-6.93055 -0.17399,-0.32938 -0.32608,-0.63776 -0.33788,-0.68485 -0.0118,-0.0471 -0.10239,-0.27939 -0.20159,-0.51637 -0.30038,-0.71805 -0.35767,-1.62989 -0.13539,-2.15386 0.14099,-0.33198 1.03493,-1.08793 2.71183,-2.29185 2.19985,-1.5809 2.53583,-1.88688 2.79281,-2.54384 0.25039,-0.64016 0.26189,-0.85824 0.0807,-1.5359 -0.36847,-1.37791 -1.90787,-2.22785 -3.16479,-1.74788 -0.60826,0.23188 -5.33266,3.64576 -5.94562,4.29572 -1.13792,1.20792 -1.68689,2.68582 -1.68988,4.5507 -0.003,2.02387 0.52906,3.39678 3.50677,9.04542 0.54576,1.03493 1.4509,2.76782 2.01187,3.85075 0.56086,1.08193 1.32791,2.54584 1.70489,3.25179 1.5469,2.89881 1.73988,3.34978 1.81388,4.23972 0.0944,1.13793 -0.22699,1.5869 -1.04893,1.46391 -1.12793,-0.16799 -0.88855,0.0516 -8.93042,-8.18847 -12.90921,-13.22914 -13.0192,-13.32914 -15.17906,-14.13908 -0.91234,-0.33998 -3.1278,-0.46567 -3.83175,-0.21709 -1.81588,0.64206 -3.0978,1.69589 -3.82775,3.1458 -0.78885,1.5669 -0.72056,4.45671 0.15139,6.39659 0.17449,0.38817 0.48887,1.09092 0.69835,1.56089 0.20949,0.47057 0.57876,1.27892 0.82075,1.79689 0.24198,0.51766 0.45087,0.97973 0.46477,1.02693 0.0138,0.0471 0.29988,0.66326 0.63576,1.36891 0.81334,1.70989 1.5589,3.31678 1.5869,3.42278 0.0127,0.0471 0.24098,0.54726 0.50736,1.11193 1.13393,2.40384 0.51647,3.91074 -1.23592,3.0158 -0.37557,-0.19159 -1.08793,-0.71686 -1.58189,-1.16692 -2.10287,-1.91388 -3.42078,-2.56384 -5.52565,-2.72583 -1.87687,-0.14429 -2.83281,0.16459 -4.72469,1.5259 l -1.4379,1.03494 -0.44468,-0.51687 c -0.24438,-0.28428 -0.94493,-1.11493 -1.55689,-1.84488 -2.61184,-3.1178 -7.64551,-7.50751 -11.07928,-9.66137 -0.49417,-0.30978 -0.89845,-0.61726 -0.89845,-0.68336 0,-0.0661 0.55417,-0.25348 1.23193,-0.41617 3.66976,-0.88075 7.38351,-3.74876 9.38638,-7.24753 1.6049,-2.80482 2.04587,-5.05267 2.04587,-10.42932 v -3.82776 l 1.41191,-0.003 c 2.96881,-0.006 5.20366,-0.84184 7.14153,-2.66982 1.25292,-1.18193 2.13287,-2.63483 2.68283,-4.42871 0.28268,-0.92215 0.31488,-1.70689 0.31488,-7.7005 0,-5.84962 -0.0376,-6.80856 -0.30228,-7.7675 -0.90524,-3.27679 -3.51377,-5.90961 -6.72856,-6.78856 -0.65556,-0.17939 -2.04387,-0.30988 -3.93475,-0.36997 l -2.92181,-0.0928 -0.70545,-1.6099 c -3.60877,-8.24046 -11.03928,-15.149 -19.63872,-18.2588 -3.1228,-1.12893 -7.26453,-1.99587 -9.53738,-1.99587 -0.51497,0 -1.5259,-0.05 -2.24586,-0.1108 l -1.30891,-0.11029 v -7.59551 l 1.4549,-0.72046 c 2.43085,-1.20492 4.28273,-3.32578 5.36265,-6.1396 0.39748,-1.03593 0.44318,-1.38991 0.44318,-3.46377 0,-2.07387 -0.0457,-2.42784 -0.44318,-3.46378 -0.24358,-0.63456 -0.70235,-1.59489 -1.01993,-2.13286 -0.63576,-1.07793 -2.76082,-3.30178 -3.15379,-3.30178 -0.1366,0 -0.24819,-0.0652 -0.24819,-0.14539 0,-0.16649 -2.09286,-1.15893 -2.73882,-1.29792 -0.23528,-0.0509 -0.77425,-0.16709 -1.19792,-0.25818 -0.48477,-0.1043 -0.99514,-0.15919 -1.5219,-0.16649 z m -0.13089,7.17653 c 0.93774,0.0189 1.88388,0.39938 2.61983,1.23792 1.5469,1.76189 1.06193,4.53271 -0.96864,5.53664 -1.36191,0.67326 -2.65682,0.63246 -3.87774,-0.12229 -0.71856,-0.44407 -1.39291,-1.5749 -1.5279,-2.56483 -0.33198,-2.42185 1.69189,-4.12974 3.75475,-4.08774 z m -1.5869,28.59814 c 0.90865,0.002 1.89788,0.0118 2.98381,0.0271 6.36059,0.0896 7.53651,0.20849 10.53931,1.06493 4.55271,1.29692 8.46245,3.61976 11.95923,7.10154 3.45377,3.44477 5.72362,7.30652 7.03654,11.97922 0.96334,3.42478 1.01193,4.35271 1.01193,19.14875 0,14.61905 0.0241,14.20908 -0.94504,16.10895 -0.86084,1.68489 -2.59983,3.1658 -4.6167,3.93175 -0.67935,0.25818 -1.32191,0.36977 -2.52583,0.43967 H 97.378781 c -2.18786,-0.19469 -3.66476,-0.86854 -5.16066,-2.29485 -1.11893,-1.06693 -1.6379,-1.85788 -2.21586,-3.37378 l -0.38557,-1.01294 v -14.28907 c 0,-12.95915 0.0281,-14.43906 0.30278,-15.85896 1.96987,-10.21934 8.88142,-18.27882 18.388799,-21.43861 3.62477,-1.20292 6.02461,-1.5429 12.38919,-1.5279 z m 14.54906,10.92929 c -1.31592,0.005 -2.65783,0.25698 -3.96474,0.78815 -4.44671,1.80688 -7.12354,6.40758 -6.49258,11.15927 0.63586,4.78269 3.93074,8.29046 8.64543,9.2034 4.46771,0.86465 9.38739,-1.62889 11.33927,-5.74762 0.37927,-0.80005 0.78295,-1.86188 0.89694,-2.35985 0.29238,-1.27692 0.24918,-3.70076 -0.0888,-5.00567 -1.26991,-4.90669 -5.63763,-8.05148 -10.33932,-8.03548 z m -26.02831,0.0266 c -4.5417,-0.0787 -8.84742,2.76382 -10.309329,7.41751 -0.50636,1.6079 -0.53496,4.82869 -0.0551,6.2456 1.403909,4.14673 4.576699,6.90055 8.662439,7.51751 1.33991,0.20219 1.65989,0.20259 2.90981,0.006 6.76856,-1.06793 10.7293,-7.44351 8.65844,-13.93909 -0.83225,-2.61083 -2.85382,-4.94068 -5.33766,-6.1526 -1.4689,-0.71656 -3.0088,-1.06693 -4.5227,-1.09393 z m -0.15339,7.02054 c 0.32308,5.3e-4 0.65436,0.0435 0.98814,0.13339 0.91984,0.24769 2.16286,1.36091 2.43284,2.17986 0.60516,1.83388 -0.14749,3.72576 -1.80788,4.54371 -2.17986,1.07392 -4.6827,-0.1288 -5.21567,-2.50584 -0.51576,-2.30185 1.34192,-4.35472 3.60277,-4.34972 z m 26.23829,0.0125 c 0.58657,0.0107 1.19893,0.15789 1.80189,0.46527 0.75375,0.38458 1.40491,1.16692 1.69689,2.04087 0.67015,2.00187 -0.58427,4.13873 -2.71483,4.6247 -0.42357,0.0966 -0.80875,0.16849 -0.85584,0.15999 -2.26485,-0.41017 -3.34878,-1.41291 -3.54077,-3.27879 -0.24248,-2.34885 1.5179,-4.05074 3.61276,-4.01274 z m -52.216599,4.01774 -0.13389,1.09293 c -0.0738,0.60076 -0.18159,4.13473 -0.23968,7.85249 l -0.1058,6.75956 -1.11992,0.0502 c -1.23592,0.055 -1.92188,-0.26288 -2.62983,-1.21792 -0.34758,-0.46917 -0.35798,-0.66106 -0.35798,-6.61857 0,-5.92962 0.0119,-6.1516 0.35298,-6.60857 0.70505,-0.94434 1.15992,-1.14793 2.74982,-1.23092 z m 77.774939,0.003 1.6029,0.0712 c 1.85788,0.0822 2.48683,0.36088 3.0418,1.34891 0.34428,0.61276 0.35847,0.86704 0.35847,6.49258 0,6.64457 -0.0117,6.70956 -1.27891,7.45251 -0.59336,0.34768 -0.94744,0.42218 -2.01187,0.42218 h -1.29192 l -0.10129,-7.14454 c -0.0556,-3.92974 -0.15039,-7.48151 -0.21059,-7.89249 z m -38.71748,44.95707 c 2.45784,0 4.91568,0.1362 6.58857,0.40858 5.25766,0.85634 10.24934,2.59883 14.61905,5.10367 12.19921,6.99054 20.18869,19.19875 21.66859,33.08784 0.26758,2.51284 0.27098,7.14354 0.006,9.2414 -1.25892,9.96535 -5.47664,18.66879 -12.40919,25.59834 -7.30853,7.30852 -16.51893,11.61924 -26.79826,12.55918 -6.29459,0.57116 -12.82916,-0.32838 -18.81877,-2.59183 -15.348999,-5.80063 -26.118299,-19.86871 -27.728199,-36.21765 -0.22428,-2.28085 -0.22368,-6.59057 0.002,-8.71643 0.84915,-8.01548 4.08074,-15.86897 9.1904,-22.34854 1.5869,-2.01087 5.63464,-5.92762 7.7475,-7.49652 5.885619,-4.37171 12.189209,-7.04954 19.338739,-8.21346 1.67289,-0.27248 4.13073,-0.40858 6.58857,-0.40858 z m 0.49537,9.20741 c -0.25078,-0.003 -0.50227,-0.002 -0.75405,5.2e-4 -0.25579,0.003 -0.51187,0.009 -0.76855,0.0176 -8.84143,0.30298 -16.37894,3.49677 -22.648529,9.59738 -5.63963,5.48564 -9.1724,12.67917 -9.96435,20.26868 -0.31878,3.0588 -0.11599,7.98148 0.43817,10.62931 1.41491,6.75955 4.45271,12.41918 9.2364,17.20887 5.599639,5.60564 12.719169,8.99842 20.628659,9.82636 1.93387,0.20259 6.35558,0.0752 8.41545,-0.24268 7.27353,-1.12193 13.70911,-4.38772 18.88877,-9.57938 1.04093,-1.04393 2.37485,-2.53483 2.96381,-3.31478 6.0356,-7.98549 8.26046,-17.74885 6.27159,-27.50822 -3.16579,-15.53899 -16.9089,-26.73826 -32.70787,-26.90825 z m 2.58483,11.24926 c 0.68656,0 0.88964,0.0849 1.38591,0.58157 l 0.58156,0.58206 v 4.99667 h 1.47291 c 3.44777,0 6.28759,1.5139 8.12547,4.33172 0.97373,1.4929 1.4149,2.98381 1.42791,4.82369 0.006,0.84714 -0.096,1.92587 -0.22709,2.39584 -0.38028,1.36491 -1.32792,3.0338 -2.30085,4.05474 l -0.89994,0.94403 0.94954,1.01494 c 1.18392,1.26392 1.80188,2.39684 2.23685,4.09773 0.40028,1.5649 0.41957,2.48284 0.0863,4.05574 -0.53276,2.51383 -2.34785,5.00067 -4.5647,6.25459 -1.28992,0.72955 -3.30079,1.22592 -4.96468,1.22592 h -1.34191 v 2.37285 c 0,2.17485 -0.031,2.41184 -0.37098,2.84381 -0.84354,1.07193 -2.18285,1.13593 -3.0528,0.14589 l -0.51187,-0.58306 v -4.77969 h -3.76475 v 2.37285 c 0,2.17486 -0.031,2.41184 -0.37098,2.84381 -0.20408,0.25938 -0.62496,0.57816 -0.93554,0.70796 -0.31058,0.12979 -0.62475,0.22538 -0.69835,0.21258 -0.73405,-0.12779 -0.95714,-0.24858 -1.40891,-0.76355 l -0.52136,-0.59416 v -4.77969 h -2.57284 c -2.90881,0 -3.57177,-0.16679 -4.00774,-1.00993 -0.24208,-0.46807 -0.26628,-2.15086 -0.22558,-15.85897 l 0.0456,-15.339 0.59256,-0.49487 0.59206,-0.49437 h 5.57564 v -4.99667 l 0.60316,-0.60316 c 0.56816,-0.56817 0.65436,-0.59847 1.4869,-0.51837 0.71765,0.069 0.97444,0.18639 1.36491,0.62316 0.48007,0.53726 0.48077,0.54176 0.48077,3.0168 v 2.47884 h 3.76476 v -4.99667 l 0.58156,-0.58207 c 0.49667,-0.49666 0.69975,-0.58156 1.38591,-0.58156 z m -1.67189,10.11937 c -0.84904,0.002 -1.79788,0.006 -2.86282,0.0125 l -7.95748,0.0486 -0.0456,5.26966 -0.0451,5.26966 17.54886,-0.1004 0.90144,-0.40757 c 1.13293,-0.51187 2.47084,-1.94188 2.84482,-3.0388 0.34937,-1.02494 0.35127,-2.51284 0.005,-3.52877 -0.32568,-0.95594 -1.38891,-2.20586 -2.35685,-2.76982 -1.07393,-0.62596 -2.08586,-0.76425 -8.02948,-0.75406 z m -10.90929,14.67904 v 10.44932 h 8.63544 c 8.30146,0 8.67243,-0.0134 9.57837,-0.35248 1.09793,-0.41077 2.29085,-1.4909 2.84882,-2.57983 0.52356,-1.02193 0.64126,-2.88581 0.25518,-4.04773 -0.36517,-1.09993 -1.34691,-2.21686 -2.51784,-2.86482 l -0.91643,-0.50737 -8.94142,-0.0486 z"
       inkscape:connector-curvature="0"
       style="display:inline;stroke-width:0.171089" />
    <path
       id="path2304"
       d="m 137.1092,193.57058 a 14.90903,13.759105 0 0 1 -7.45252,11.91922 14.90903,13.759105 0 0 1 -14.90903,0 14.90903,13.759105 0 0 1 -7.45251,-11.91922"
       inkscape:connector-curvature="0"
       style="display:inline;stroke-width:0.288381" />
    <path
       id="path2306"
       d="m 122.51015,212.76933 -0.0236,0.0126 -0.003,0.0266 -0.0192,-0.0186 -0.0262,0.005 0.0117,-0.024 -0.0132,-0.0233 0.0265,0.004 0.0181,-0.0197 0.005,0.0263 z"
       inkscape:connector-curvature="0"
       style="display:inline;stroke-width:0.256683" />
    <text
       id="text1366"
       xml:space="preserve"
       style="font-size:61.0908px;line-height:1.25;font-family:sans-serif;display:inline;fill:#000000;stroke:#000000;stroke-width:1.52727"
       font-size="96.8px"
       y="300.13837"
       x="181.42332"><tspan
         id="tspan1364"
         y="300.13837"
         x="181.42332"
         style="font-family:'DejaVu Sans';stroke:#000000;stroke-width:1.52727">FreqAI</tspan></text>
  </g>
  <g
     inkscape:groupmode="layer"
     id="layer2"
     inkscape:label="PARACHUTE"
     style="display:inline"
     transform="translate(23.71744,-1.9601714)">
    <g
       transform="translate(-26.725716,-4.0064965)"
       style="display:inline"
       id="g1946">
      <path
         inkscape:connector-curvature="0"
         style="display:inline;opacity:1;fill:#18bae1;fill-opacity:1;stroke:none;stroke-width:0.47834px;stroke-linecap:butt;stroke-linejoin:miter;stroke-opacity:1"
         d="M 262.7038,5.9666679 C 260.31618,37.525203 315.78814,31.034399 358.26999,150.95825 323.63927,128.88946 294.57395,136.92512 284.13257,151.46699 277.88329,135.76572 280.24544,112.2479 225.48031,119.09017 203.95221,82.595962 219.32368,61.504455 262.7038,5.9666679 Z"
         id="path1868"
         sodipodi:nodetypes="ccccc" />
      <path
         inkscape:connector-curvature="0"
         style="display:inline;opacity:1;fill:#e11919;fill-opacity:0.831372;stroke:none;stroke-width:0.47834px;stroke-linecap:butt;stroke-linejoin:miter;stroke-opacity:1"
         d="m 262.60458,6.1320325 c 0,0 -23.83256,20.7132145 -52.48073,115.6686475 C 163.48261,85.26605 145.43488,80.040971 98.396519,82.115207 151.06434,55.521847 237.643,14.001643 262.60458,6.1320325 Z"
         id="path1866"
         sodipodi:nodetypes="cccc" />
      <path
         id="path1551"
         d="M 262.7038,5.9666679 C 254.92781,13.218568 227.30234,72.844875 335.4454,19.416852 300.51552,84.08166 344.54623,90.734694 359.83234,152.32482 347.57803,138.13093 291.78527,75.242856 210.12385,121.80087 203.35526,41.556899 250.75016,14.34741 262.7038,5.9666679"
         style="display:inline;opacity:1;fill:#f9f501;fill-opacity:1;stroke:none;stroke-width:0.219134px;stroke-linecap:butt;stroke-linejoin:miter;stroke-opacity:1"
         inkscape:connector-curvature="0"
         sodipodi:nodetypes="ccccc" />
      <path
         inkscape:connector-curvature="0"
         style="display:inline;opacity:1;fill:#3ecd2d;fill-opacity:1;stroke:none;stroke-width:0.47834px;stroke-linecap:butt;stroke-linejoin:miter;stroke-opacity:1"
         d="M 98.396519,82.115207 C 144.00782,52.302053 240.973,67.83967 335.4454,19.416852 260.11684,59.0956 210.12385,121.80077 210.12385,121.80077 176.54755,98.527218 155.25198,82.454217 98.396519,82.115207 Z"
         id="path2269"
         sodipodi:nodetypes="cccc" />
      <path
         sodipodi:nodetypes="cccc"
         id="path875"
         d="m 335.4454,19.416852 c -9.20129,69.433777 11.24688,69.5371 24.38694,132.907968 C 312.28003,120.10418 255.52015,111.40061 210.12331,121.80192 250.42852,68.708729 313.52349,31.065403 335.4454,19.416852 Z"
         style="display:inline;opacity:1;fill:#2741d3;fill-opacity:1;stroke:none;stroke-width:0.47834px;stroke-linecap:butt;stroke-linejoin:miter;stroke-opacity:1"
         inkscape:connector-curvature="0" />
    </g>
  </g>
  <g
     inkscape:groupmode="layer"
     id="layer8"
     inkscape:label="inbetween"
     style="display:inline"
     transform="translate(-3.0082758,-5.9666678)" />
  <g
     inkscape:label="Layer 1"
     inkscape:groupmode="layer"
     id="layer1"
     transform="translate(118.76031,-4.0891344)"
     style="display:inline">
    <path
       transform="matrix(1.0227138,0,0,1.0923454,-180.74242,54.998164)"
       inkscape:connector-curvature="0"
       style="display:inline;opacity:1;fill:#000000;fill-opacity:1;stroke:none;stroke-width:0.264583px;stroke-linecap:butt;stroke-linejoin:miter;stroke-opacity:1"
       d="m 409.50476,87.379983 c 0.098,-0.05911 0.82957,0.886436 2.07545,2.822175 1.04507,1.623744 3.25835,5.167411 4.12211,9.194511 0.24011,1.048051 0.37549,2.363451 -0.10902,3.660331 -0.18859,0.47508 -0.48353,0.9229 -0.88238,1.29561 -0.4008,0.36595 -0.86666,0.63703 -1.35775,0.81687 -1.19769,0.43163 -2.45385,0.47703 -3.68134,0.37305 -1.61057,-0.11875 -3.19794,-0.44421 -4.8476,-0.87259 -4.16825,-1.07786 -8.14201,-2.5878 -12.79809,-4.4764 -9.73087,-3.941923 -20.77511,-9.129422 -33.23313,-14.263637 -5.48499,-2.260172 -11.39743,-4.574201 -17.47741,-6.560008 -5.09212,-1.660644 -10.48843,-3.19017 -16.00486,-4.015333 -2.99141,-0.437506 -6.09154,-0.46961 -8.95819,0.325781 -2.42803,0.652502 -4.72929,1.92692 -6.74879,3.603104 -2.16015,1.788823 -4.01152,4.022183 -5.76455,6.441443 -1.98456,2.749884 -3.76187,5.674924 -5.58975,8.71081 -4.19023,6.97383 -8.63594,14.41792 -14.06138,21.13172 -0.4076,0.45385 -0.82052,0.90435 -1.23872,1.35135 -6.99445,7.4762 -15.14736,13.64043 -23.95364,18.25267 1.08898,-2.79485 1.7844,-5.77129 1.81896,-8.80392 0,0 10e-6,-1e-5 10e-6,-1e-5 0.38,-2.40424 0.21457,-4.88822 -0.38967,-7.23261 -0.63616,-2.48616 -1.77286,-4.85563 -3.1418,-7.05996 -1.53736,-2.46945 -3.39699,-4.74262 -5.3732,-6.86136 -4.50934,-4.83407 -9.76414,-8.980583 -14.8279,-12.716321 -5.31289,-3.914842 -10.63799,-7.453058 -15.64776,-10.989417 -2.22769,-1.571719 -4.36129,-3.115548 -6.42213,-4.778903 -1.64818,-1.324283 -3.23931,-2.705582 -4.62447,-4.342456 -0.53145,-0.625434 -1.03333,-1.314573 -1.44675,-2.091148 -0.34225,-0.627813 -0.60475,-1.357327 -0.69952,-2.169834 0,0 0,-1.4e-5 0,-1.4e-5 -0.0779,-0.750702 0.0462,-1.512763 0.367,-2.209488 0,0 0,-1.2e-5 0,-1.2e-5 0.38316,-0.77978 0.92391,-1.386219 1.50254,-1.835437 0.78178,-0.619545 1.62171,-1.06389 2.4332,-1.407758 1.13734,-0.488832 2.29126,-0.844274 3.40719,-1.132195 3.50309,-0.906013 7.05979,-1.338662 10.22546,-1.650874 23.14119,-2.295465 36.94293,-0.840996 36.9438,-0.452268 8.8e-4,0.388728 -13.90634,-0.336072 -36.71433,2.505031 -3.12101,0.390538 -6.57136,0.885582 -9.85579,1.814406 -1.0434,0.295814 -2.08057,0.634827 -3.04947,1.07809 -0.69296,0.321905 -1.34571,0.671292 -1.86387,1.113717 -0.364,0.320857 -0.67323,0.650293 -0.8072,0.991792 0,0 0,5e-6 0,5e-6 -0.12418,0.268103 -0.16576,0.599529 -0.12769,0.918029 0,0 0,6e-6 0,6e-6 0.0351,0.384659 0.21456,0.805098 0.44854,1.252612 0.2987,0.552334 0.70811,1.082464 1.17179,1.620759 1.22674,1.417525 2.71555,2.653886 4.3349,3.928004 2.01237,1.575728 4.11873,3.052334 6.3518,4.584232 5.01914,3.441387 10.39585,6.923268 15.83064,10.840983 5.16939,3.721829 10.59624,7.938422 15.36962,12.963249 2.09536,2.20557 4.09636,4.62677 5.7996,7.31323 1.52509,2.40018 2.80715,5.06206 3.57603,7.94655 0.72759,2.74645 0.93046,5.67198 0.49493,8.56235 0,0 0,2e-5 0,2e-5 -0.86253,2.79257 -2.45308,5.41852 -4.50792,7.73608 7.7848,-5.12796 14.91436,-11.79762 20.9229,-19.73477 0.35932,-0.47465 0.71367,-0.95257 1.063,-1.43365 5.23266,-6.45055 9.60687,-13.768177 13.82746,-20.73084 1.83968,-3.041164 3.68014,-6.039283 5.77405,-8.922486 1.84136,-2.545239 3.89517,-4.972657 6.36038,-7.016242 2.34518,-1.940232 5.06675,-3.410413 7.99843,-4.196264 3.44629,-0.898759 6.97894,-0.864116 10.27251,-0.332555 5.77241,0.915435 11.31553,2.532414 16.47253,4.277279 6.17081,2.08481 12.11826,4.490475 17.61006,6.839343 12.48717,5.339979 23.40869,10.705759 32.98675,14.843562 4.60517,1.986833 8.42219,3.560413 12.44172,4.725603 1.58792,0.45848 3.05427,0.81419 4.51576,0.96734 1.13127,0.10478 2.14607,0.13666 3.01995,-0.16986 0.3399,-0.11628 0.6453,-0.27004 0.87952,-0.47523 0.23454,-0.19697 0.42225,-0.46007 0.55127,-0.74468 0.39736,-0.81327 0.30177,-1.89803 0.16325,-2.868152 -0.59138,-3.720132 -2.57864,-7.437888 -3.43482,-9.095384 -1.04775,-2.028358 -1.59021,-3.100526 -1.49222,-3.159631 z"
       id="path881-9"
       inkscape:path-effect="#path-effect902"
       inkscape:original-d="M 409.50476,87.379983 C 435.6922,130.79521 365.80455,80.00376 325.55086,73.797177 296.09378,69.255288 300.47471,110.7067 259.28399,134.88902 286.99609,89.827623 131.46063,59.732853 263.12068,59.437455"
       sodipodi:nodetypes="cscc"
       class="UnoptimicedTransforms" />
  </g>
</svg>
