<?xml version="1.0" encoding="UTF-8"?>
<svg width="2904" height="842.1" version="1.1" viewBox="0 0 768.4 222.8" xmlns="http://www.w3.org/2000/svg" xmlns:cc="http://creativecommons.org/ns#" xmlns:dc="http://purl.org/dc/elements/1.1/" xmlns:rdf="http://www.w3.org/1999/02/22-rdf-syntax-ns#" xmlns:xlink="http://www.w3.org/1999/xlink">
 <defs>
  <path id="c6g67PWSoP" d="m0 90v-90h90v90zm50-30h10v20h10v-20h10v-10h-30zm-20 20h10v-10h-10zm0-20h-10v10h-10v10h10v-10h10v-10h10v-10h-10zm-20 0h10v-10h-10zm0-20h30v-10h-20v-10h20v-10h-30zm40 0h30v-10h-20v-10h20v-10h-30z"/>
 </defs>
 <metadata>
  <rdf:RDF>
   <cc:Work rdf:about="">
    <dc:format>image/svg+xml</dc:format>
    <dc:type rdf:resource="http://purl.org/dc/dcmitype/StillImage"/>
    <dc:title/>
   </cc:Work>
  </rdf:RDF>
 </metadata>
 <g transform="translate(-.5293 -59.8)">
  <g>
   <g fill="#fff">
    <g stroke-width=".2593">
     <path d="m105.4 261.6c-19.47-1.85-35.23-16.54-38.53-35.89-0.4581-2.692-0.5147-3.864-0.4014-8.32 0.1862-7.325 1.102-11.04 4.352-17.63 2.345-4.762 4.501-7.705 8.502-11.6 6.376-6.215 13.48-9.949 22.12-11.64 4.197-0.819 11.28-0.819 15.47 0 19.33 3.772 33.33 19.33 35.07 38.98 1.593 17.94-9.27 35.69-26.24 42.86-6.231 2.634-13.89 3.851-20.36 3.236zm10.85-9.601c6.512-1.319 12.3-4.492 17.2-9.425 4.388-4.421 7.364-9.819 8.95-16.23 0.5289-2.139 0.6104-3.112 0.6186-7.391 8e-3 -3.87-0.0941-5.4-0.4733-7.131-2.953-13.48-13.02-23.46-26.61-26.37-3.064-0.6563-10.36-0.6537-13.48 5e-3 -7.184 1.515-12.92 4.712-17.96 10-4.569 4.801-7.418 10.37-8.793 17.18-0.4928 2.44-0.3983 10.19 0.1562 12.8 2.865 13.5 13.06 23.82 26.23 26.55 1.415 0.2939 2.981 0.5846 3.48 0.6458 1.924 0.2362 8.245-0.1388 10.69-0.6345z"/>
     <path d="m83.16 168.3c-2.404-0.5663-4.612-2.45-5.748-4.904l-0.6606-1.426-0.0025-13.49c-0.0016-7.813 0.1111-14.4 0.2674-15.64 0.7322-5.839 4.019-12.22 8.409-16.33 4.327-4.048 10.12-6.683 16.08-7.311 2.959-0.3119 11.38-0.3126 14.79-9.7e-4 12.42 1.136 22.89 11.12 24.51 23.38 0.1875 1.421 0.2592 6.997 0.2081 16.17l-0.078 14-0.7641 1.379c-1.522 2.748-3.9 4.154-7.411 4.381l-2.284 0.148-0.0958-6.066c-0.0885-5.606-0.1406-6.174-0.687-7.482-1.273-3.046-3.532-5.171-6.626-6.229-1.454-0.4975-2.167-0.524-14.06-0.524-11.95 0-12.61 0.0246-14.16 0.5343-3.001 0.9858-5.57 3.443-6.693 6.402-0.5024 1.323-0.5819 2.158-0.7042 7.391l-0.1379 5.9-1.584-0.026c-0.871-0.0144-2.023-0.1296-2.56-0.2562zm16.05-27.61c1.832-0.5148 4.295-2.225 5.43-3.77 1.944-2.648 2.549-5.597 1.82-8.872-2.544-11.44-19.12-10.91-20.92 0.6703-0.738 4.741 1.663 9.408 5.848 11.37 2.763 1.293 4.817 1.452 7.827 0.6065zm27.65-0.5658c2.261-1.061 4.128-2.924 5.204-5.195 0.7676-1.62 0.828-1.947 0.828-4.471 0-2.523-0.0607-2.851-0.8259-4.466-3.247-6.855-12.03-8.484-17.29-3.209-5.586 5.601-3.419 15.18 4.035 17.83 1.06 0.3775 1.929 0.4701 3.834 0.409 2.128-0.0682 2.702-0.1906 4.212-0.8989z"/>
     <path d="m114.3 168.4-1.75-0.0907v-12.68h3.915c4.42 0 5.304 0.2398 6.194 1.679 0.4788 0.7747 0.5227 1.285 0.5227 6.066v5.221l-3.566-0.0508c-1.961-0.0279-4.353-0.0916-5.316-0.1415z"/>
     <path d="m94.68 163.2c0.09582-5.9 0.1486-6.123 1.695-7.142 0.6299-0.4153 1.275-0.4798 4.812-0.4813l4.084-2e-3v6.208c0 4.044-0.0946 6.267-0.2715 6.376-0.1493 0.0923-2.552 0.2339-5.339 0.3147l-5.068 0.1469z"/>
     <path d="m67.36 146.2c-0.2853-0.1168-0.752-0.4717-1.037-0.7888-0.4881-0.5425-0.5186-0.9415-0.5186-6.767v-6.191l0.6483-0.6457c0.4764-0.4744 1.049-0.6924 2.158-0.8218l1.51-0.1761-0.1396 0.8807c-0.07681 0.4844-0.2152 4.002-0.3076 7.818l-0.1679 6.937-0.8134-0.0164c-0.4474-9e-3 -1.047-0.112-1.332-0.2287z"/>
     <path d="m94.2 133.3c-2.224-1.356-2.107-4.661 0.2077-5.859 1.658-0.8575 3.699-0.3058 4.652 1.258 1.835 3.01-1.81 6.461-4.86 4.601z"/>
     <path d="m121.5 133.7c-2.088-0.6881-3.072-2.404-2.49-4.344 0.7643-2.551 4.061-3.203 5.926-1.172 1.758 1.914 0.7792 4.806-1.88 5.554-0.4575 0.1287-1.098 0.1132-1.556-0.0376z"/>
     <path d="m148.3 140.3c0-3.402-0.0769-6.922-0.1709-7.821l-0.1709-1.635 1.662 0.1679c1.409 0.1423 1.77 0.2873 2.375 0.953l0.7131 0.7851v5.814c0 3.223-0.1148 6.116-0.2577 6.491-0.31 0.8155-1.645 1.431-3.105 1.431h-1.046z"/>
     <path d="m103.5 241c-0.7859-0.6613-0.7979-0.7077-0.7979-3.089v-2.418l-2.826-0.0878c-4.372-0.1358-3.916 1.783-3.916-16.49v-15.41l0.5835-0.4868c0.4895-0.4083 1.033-0.4881 3.371-0.4954l2.788-9e-3v-2.574c0-2.49 0.0231-2.593 0.7019-3.126 0.7697-0.6054 1.672-0.5377 2.475 0.1859 0.3738 0.3368 0.4538 0.8592 0.4538 2.962v2.553h4.149v-2.574c0-2.472 0.0271-2.596 0.6833-3.112 0.3758-0.2956 0.8852-0.5375 1.132-0.5375 0.2468 0 0.7562 0.2419 1.132 0.5375 0.655 0.5152 0.6833 0.6425 0.6833 3.075v2.537l2.06 0.1412c3.312 0.227 5.764 1.62 7.522 4.274 1.022 1.543 1.359 2.83 1.338 5.103-0.0195 2.078-0.8599 4.137-2.443 5.987l-0.8894 1.039 1.138 1.294c1.975 2.244 2.75 5.198 2.067 7.868-1.146 4.474-4.783 7.289-9.431 7.299l-1.361 3e-3v2.418c0 2.193-0.056 2.471-0.6002 2.982-0.75 0.7046-1.833 0.7241-2.512 0.0452-0.4458-0.4458-0.5186-0.8644-0.5186-2.982v-2.464h-4.149v2.313c0 2.731-0.0901 3.032-1.056 3.532-0.9314 0.4817-0.8394 0.4968-1.777-0.292zm15.04-10.05c1.688-0.8913 2.595-2.33 2.749-4.358 0.1616-2.138-0.5574-3.607-2.363-4.828l-1.246-0.8428h-18.09v10.63h8.906c8.822 0 8.916-6e-3 10.05-0.6034zm-0.3133-14.42c4.042-2.062 4.163-7.616 0.2086-9.58-1.153-0.5724-1.628-0.6274-6.481-0.7483-2.88-0.0718-6.842-0.0443-8.803 0.0608l-3.566 0.1914v10.58h8.827c8.226 0 8.894-0.0342 9.814-0.5034z"/>
    </g>
    <path d="m108 87.11c-1.062-0.4155-1.351-0.6802-1.843-1.684-0.3988-0.815-0.4784-1.19-0.4081-1.922 0.1746-1.817 1.643-3.119 3.519-3.119 3.101 0 4.679 3.68 2.509 5.85-1.008 1.008-2.533 1.361-3.776 0.8744z" stroke-width=".1834"/>
    <rect x="83.16" y="146.5" width="51.76" height="21.71" ry="2.17" stroke-width=".2855"/>
   </g>
   <g>
    <path d="m109.4 73.03c-1.581-0.02174-3.309 0.3864-4.927 1.184-2.685 1.323-4.869 4.107-5.638 7.188-0.4075 1.632-0.2499 4.315 0.3455 5.882 1.026 2.701 2.88 4.872 5.158 6.041l1.278 0.6558 5.1e-4 3.893 1e-3 3.894-0.3851 5e-3c-6.091 0.0849-11.31 1.25-16.14 3.601-3.731 1.816-6.628 3.959-9.747 7.208-2.812 2.93-5.407 6.808-6.691 10l-0.4904 1.218-2.826 0.0932c-3.105 0.1028-4.267 0.3342-5.808 1.157-2.009 1.073-3.42 2.691-4.395 5.042l-0.4964 1.198v14.89l0.4347 1.115c1.136 2.913 3.448 5.107 6.229 5.908 0.5588 0.1611 1.753 0.3413 2.653 0.4001l1.637 0.1068 0.1033 4.707c0.09087 4.141 0.1478 4.857 0.4748 5.96 1.62 5.465 5.695 9.465 11.03 10.83 0.7666 0.1957 1.416 0.3776 1.444 0.4046 0.02711 0.027-0.3581 0.3046-0.8559 0.6167-2.623 1.645-5.662 4.125-8.359 6.824-3.626 3.628-6.432 7.271-8.379 10.88-1.047 1.94-0.8568 1.83-2.321 1.337-1.851-0.6223-1.922-0.8193-1.688-4.68 0.1736-2.863-0.3206-4.679-1.679-6.167-2.388-2.616-6.168-2.562-8.982 0.1284-0.7322 0.6998-2.442 3.066-2.442 3.38 0 0.0551-0.3847 0.7146-0.8554 1.466-0.4706 0.751-0.8559 1.404-0.8559 1.45 0 0.0465-0.3079 0.5877-0.6844 1.203-0.3765 0.6152-0.6849 1.156-0.6849 1.203 0 0.1692-2.271 3.771-2.61 4.141-0.1922 0.209-0.6216 0.4698-0.9542 0.5796-0.5455 0.18-0.634 0.1631-0.9065-0.1735-0.4985-0.6156-0.5451-1.652-0.17-3.782 0.1907-1.082 0.388-2.16 0.4387-2.396 0.0507-0.2353 0.246-1.275 0.4337-2.31 0.1877-1.035 0.3817-2.075 0.4312-2.31 0.085-0.4045 0.7306-3.8 0.8624-4.536 0.07427-0.4144 0.7555-4.14 0.8448-4.621 0.03501-0.1883 0.2274-1.228 0.4277-2.31 0.2003-1.082 0.3932-2.122 0.4282-2.31 1.021-5.491 1.083-6.482 0.5149-8.273-0.4484-1.414-0.9995-2.331-1.889-3.14-2.435-2.215-6.131-1.873-8.751 0.8108-0.8827 0.9041-1.376 1.675-2.652 4.142-1.094 2.115-2.339 4.509-4.25 8.172-0.6876 1.318-1.554 2.99-1.925 3.717-0.7118 1.393-1.925 2.701-2.506 2.701-0.184 0-1.652-0.4549-3.263-1.011-2.08-0.7179-3.087-0.9861-3.477-0.9251-1.918 0.3001-2.807 2.381-1.681 3.935 0.4711 0.6503 0.6462 0.7339 3.863 1.847 3.829 1.325 4.85 1.447 6.602 0.7897 1.05-0.394 3.074-1.91 3.496-2.618 0.1521-0.2554 0.3712-0.5638 0.4869-0.6849 0.1157-0.1211 0.4515-0.6822 0.7461-1.247 0.2946-0.5648 0.9002-1.72 1.346-2.567 0.8641-1.641 2.576-4.953 4.866-9.413 0.9711-1.892 1.617-2.937 2.09-3.38 1.268-1.19 2.196-0.6374 2.196 1.308 0 0.604-0.3886 3.075-0.7701 4.896-0.09063 0.4327-0.7499 3.904-0.8614 4.535-0.03323 0.1882-0.185 0.9969-0.3369 1.797-0.1519 0.8001-0.3044 1.609-0.3389 1.797-0.08721 0.4758-0.7767 4.203-0.8549 4.621-0.03522 0.1882-0.2162 1.151-0.4021 2.139s-0.5369 2.875-0.7797 4.193c-0.2428 1.318-0.4855 2.589-0.5395 2.824-0.05402 0.2353-0.1025 1.121-0.1073 1.968-0.0198 3.463 1.791 6.127 4.663 6.863 2.571 0.6586 5.174-0.4877 7.145-3.146 0.4857-0.6552 0.8835-1.278 0.8835-1.384 0-0.1062 0.07685-0.193 0.171-0.193 0.09413 0 0.171-0.088 0.171-0.1956 0-0.1075 0.3084-0.6834 0.6849-1.28 0.3765-0.5962 0.6844-1.123 0.6844-1.171 0-0.0477 0.3079-0.5897 0.6844-1.205 0.3765-0.6152 0.6849-1.194 0.6849-1.287 0-0.0925 0.07685-0.1685 0.171-0.1685 0.09412 0 0.171-0.0875 0.171-0.195 0-0.1654 0.4442-0.9499 1.493-2.635 0.1151-0.1849 0.3356-0.5861 0.4899-0.8915 0.3471-0.6872 1.301-1.543 1.883-1.689 0.3376-0.0847 0.5013-0.018 0.724 0.2943 0.5294 0.7422 0.5312 0.7657 0.2903 3.918-0.2214 2.897 0.5136 5.083 2.239 6.66 0.82 0.7494 1.209 0.947 3.448 1.75l0.3836 0.1379-0.5721 1.588c-2.07 5.743-2.973 11.6-2.79 18.1 0.1673 5.955 0.9682 10.33 2.883 15.75 5.244 14.83 17.3 26.49 32.38 31.31 4.043 1.291 9.145 2.153 13.54 2.286h5.1e-4c5.814 0.1764 12.28-0.7295 17.37-2.436 12.84-4.3 23.4-13.32 29.42-25.15 3.718-7.3 5.508-14.68 5.513-22.74 7e-3 -8.792-2.061-17.05-6.103-24.37-0.6078-1.102-1.105-2.081-1.105-2.177 0-0.2192 1.724-1.502 2.327-1.731 0.6098-0.2319 1.916 0.3923 3.064 1.464 0.4706 0.4393 1.067 0.924 1.326 1.077 0.2588 0.153 0.4708 0.328 0.4708 0.3891 0 0.0609 0.4755 0.3242 1.057 0.5851 1.414 0.6346 3.594 0.7849 4.95 0.3415 3.75-1.226 5.064-5.671 2.984-10.1-0.2212-0.4706-0.5721-1.241-0.7797-1.711-0.2076-0.4706-0.63-1.395-0.9386-2.054-0.3086-0.6589-0.8105-1.737-1.116-2.396-0.3051-0.6589-0.8449-1.814-1.199-2.567-0.9428-2.003-1.117-2.688-0.8824-3.471 0.1537-0.513 0.2852-0.6544 0.6353-0.6834 1.185-0.0981 1.143-0.1376 15.31 14.34 3.247 3.318 6.315 6.337 6.816 6.71 1.64 1.218 2.615 1.554 4.564 1.572 1.532 0.0143 1.81-0.0326 2.653-0.4472 2.518-1.239 3.739-3.864 3.248-6.982-0.2482-1.575-0.4283-2.003-2.524-5.99-0.4205-0.8001-1.323-2.533-2.004-3.851-1.235-2.388-3.009-5.794-3.61-6.931-0.174-0.3294-0.3261-0.6378-0.3379-0.6849-0.0118-0.0471-0.1024-0.2794-0.2016-0.5164-0.3004-0.7181-0.3577-1.63-0.1354-2.154 0.141-0.332 1.035-1.088 2.712-2.292 2.2-1.581 2.536-1.887 2.793-2.544 0.2504-0.6402 0.2619-0.8583 0.0807-1.536-0.3685-1.378-1.908-2.228-3.165-1.748-0.6083 0.2319-5.333 3.646-5.946 4.296-1.138 1.208-1.687 2.686-1.69 4.551-3e-3 2.024 0.5291 3.397 3.507 9.046 0.5458 1.035 1.451 2.768 2.012 3.851 0.5609 1.082 1.328 2.546 1.705 3.252 1.547 2.899 1.74 3.35 1.814 4.24 0.0944 1.138-0.227 1.587-1.049 1.464-1.128-0.168-0.8886 0.0516-8.931-8.189-12.91-13.23-13.02-13.33-15.18-14.14-0.9124-0.34-3.128-0.4657-3.832-0.2171-1.816 0.6421-3.098 1.696-3.828 3.146-0.7889 1.567-0.7206 4.457 0.1514 6.397 0.1745 0.3882 0.4889 1.091 0.6984 1.561 0.2095 0.4706 0.5788 1.279 0.8208 1.797 0.242 0.5177 0.4509 0.9798 0.4648 1.027 0.0138 0.0471 0.2999 0.6633 0.6358 1.369 0.8134 1.71 1.559 3.317 1.587 3.423 0.0127 0.0471 0.241 0.5473 0.5074 1.112 1.134 2.404 0.5165 3.911-1.236 3.016-0.3756-0.1916-1.088-0.7169-1.582-1.167-2.103-1.914-3.421-2.564-5.526-2.726-1.877-0.1443-2.833 0.1646-4.725 1.526l-1.438 1.035-0.4447-0.5169c-0.2444-0.2843-0.945-1.115-1.557-1.845-2.612-3.118-7.646-7.508-11.08-9.662-0.4942-0.3098-0.8985-0.6173-0.8985-0.6834 0-0.0661 0.5542-0.2535 1.232-0.4162 3.67-0.8808 7.384-3.749 9.387-7.248 1.605-2.805 2.046-5.053 2.046-10.43v-3.828l1.412-3e-3c2.969-6e-3 5.204-0.8419 7.142-2.67 1.253-1.182 2.133-2.635 2.683-4.429 0.2827-0.9222 0.3149-1.707 0.3149-7.701 0-5.85-0.0376-6.809-0.3023-7.768-0.9053-3.277-3.514-5.91-6.729-6.789-0.6556-0.1794-2.044-0.3099-3.935-0.37l-2.922-0.0928-0.7055-1.61c-3.609-8.241-11.04-15.15-19.64-18.26-3.123-1.129-7.265-1.996-9.538-1.996-0.515 0-1.526-0.05-2.246-0.1108l-1.309-0.1103v-7.596l1.455-0.7205c2.431-1.205 4.283-3.326 5.363-6.14 0.3975-1.036 0.4432-1.39 0.4432-3.464 0-2.074-0.0457-2.428-0.4432-3.464-0.2436-0.6346-0.7024-1.595-1.02-2.133-0.6358-1.078-2.761-3.302-3.154-3.302-0.1366 0-0.2482-0.06521-0.2482-0.1454 0-0.1665-2.093-1.159-2.739-1.298-0.2353-0.05087-0.7743-0.1671-1.198-0.2582-0.4848-0.1043-0.9952-0.1592-1.522-0.1665zm-0.1309 7.177c0.9378 0.0189 1.884 0.3994 2.62 1.238 1.547 1.762 1.062 4.533-0.9687 5.537-1.362 0.6733-2.657 0.6325-3.878-0.1223-0.7186-0.4441-1.393-1.575-1.528-2.565-0.332-2.422 1.692-4.13 3.755-4.088zm-1.587 28.6c0.9087 2e-3 1.898 0.0118 2.984 0.0271 6.361 0.0896 7.537 0.2085 10.54 1.065 4.553 1.297 8.463 3.62 11.96 7.102 3.454 3.445 5.724 7.307 7.037 11.98 0.9634 3.425 1.012 4.353 1.012 19.15 0 14.62 0.0241 14.21-0.9451 16.11-0.8609 1.685-2.6 3.166-4.617 3.932-0.6794 0.2582-1.322 0.3698-2.526 0.4397h-48.76c-2.188-0.1947-3.665-0.8686-5.161-2.295-1.119-1.067-1.638-1.858-2.216-3.374l-0.3856-1.013v-14.29c0-12.96 0.02808-14.44 0.3028-15.86 1.97-10.22 8.882-18.28 18.39-21.44 3.625-1.203 6.025-1.543 12.39-1.528zm14.55 10.93c-1.316 5e-3 -2.658 0.257-3.965 0.7882-4.447 1.807-7.124 6.408-6.493 11.16 0.6359 4.783 3.931 8.291 8.646 9.204 4.468 0.8647 9.388-1.629 11.34-5.748 0.3793-0.8001 0.783-1.862 0.897-2.36 0.2924-1.277 0.2492-3.701-0.0888-5.006-1.27-4.907-5.638-8.052-10.34-8.036zm-26.03 0.0266c-4.542-0.0787-8.848 2.764-10.31 7.418-0.5064 1.608-0.535 4.829-0.05515 6.246 1.404 4.147 4.577 6.901 8.663 7.518 1.34 0.2022 1.66 0.2026 2.91 6e-3 6.769-1.068 10.73-7.444 8.659-13.94-0.8323-2.611-2.854-4.941-5.338-6.153-1.469-0.7166-3.009-1.067-4.523-1.094zm-0.1534 7.021c0.3231 5.1e-4 0.6544 0.0435 0.9882 0.1334 0.9199 0.2477 2.163 1.361 2.433 2.18 0.6052 1.834-0.1475 3.726-1.808 4.544-2.18 1.074-4.683-0.1288-5.216-2.506-0.5158-2.302 1.342-4.355 3.603-4.35zm26.24 0.0125c0.5866 0.0107 1.199 0.1579 1.802 0.4653 0.7538 0.3846 1.405 1.167 1.697 2.041 0.6702 2.002-0.5843 4.139-2.715 4.625-0.4236 0.0966-0.8088 0.1685-0.8559 0.16-2.265-0.4102-3.349-1.413-3.541-3.279-0.2425-2.349 1.518-4.051 3.613-4.013zm-52.22 4.018-0.1339 1.093c-0.07378 0.6008-0.1816 4.135-0.2397 7.853l-0.1058 6.76-1.12 0.0502c-1.236 0.055-1.922-0.2629-2.63-1.218-0.3476-0.4692-0.358-0.6611-0.358-6.619 0-5.93 0.01193-6.152 0.353-6.609 0.7051-0.9444 1.16-1.148 2.75-1.231zm77.78 3e-3 1.603 0.0712c1.858 0.0822 2.487 0.3609 3.042 1.349 0.3443 0.6128 0.3585 0.8671 0.3585 6.493 0 6.645-0.0117 6.71-1.279 7.453-0.5934 0.3477-0.9475 0.4222-2.012 0.4222h-1.292l-0.1013-7.145c-0.0556-3.93-0.1504-7.482-0.2106-7.893zm-38.72 44.96c2.458 0 4.916 0.1362 6.589 0.4086 5.258 0.8564 10.25 2.599 14.62 5.104 12.2 6.991 20.19 19.2 21.67 33.09 0.2676 2.513 0.271 7.144 6e-3 9.242-1.259 9.966-5.477 18.67-12.41 25.6-7.309 7.309-16.52 11.62-26.8 12.56-6.295 0.5712-12.83-0.3284-18.82-2.592-15.35-5.801-26.12-19.87-27.73-36.22-0.2243-2.281-0.2237-6.591 0.0016-8.717 0.8492-8.016 4.081-15.87 9.191-22.35 1.587-2.011 5.635-5.928 7.748-7.497 5.886-4.372 12.19-7.05 19.34-8.214 1.673-0.2725 4.131-0.4086 6.589-0.4086zm0.4954 9.208c-0.2508-3e-3 -0.5023-2e-3 -0.7541 5.1e-4 -0.2558 3e-3 -0.5119 9e-3 -0.7686 0.0176-8.842 0.303-16.38 3.497-22.65 9.598-5.64 5.486-9.173 12.68-9.965 20.27-0.3188 3.059-0.116 7.982 0.4382 10.63 1.415 6.76 4.453 12.42 9.237 17.21 5.6 5.606 12.72 8.999 20.63 9.827 1.934 0.2026 6.356 0.0752 8.416-0.2427 7.274-1.122 13.71-4.388 18.89-9.58 1.041-1.044 2.375-2.535 2.964-3.315 6.036-7.986 8.261-17.75 6.272-27.51-3.166-15.54-16.91-26.74-32.71-26.91zm2.585 11.25c0.6866 0 0.8897 0.0849 1.386 0.5816l0.5816 0.5821v4.997h1.473c3.448 0 6.288 1.514 8.126 4.332 0.9738 1.493 1.415 2.984 1.428 4.824 6e-3 0.8472-0.096 1.926-0.2271 2.396-0.3803 1.365-1.328 3.034-2.301 4.055l-0.9 0.9441 0.9496 1.015c1.184 1.264 1.802 2.397 2.237 4.098 0.4003 1.565 0.4196 2.483 0.0863 4.056-0.5328 2.514-2.348 5.001-4.565 6.255-1.29 0.7296-3.301 1.226-4.965 1.226h-1.342v2.373c0 2.175-0.031 2.412-0.371 2.844-0.8436 1.072-2.183 1.136-3.053 0.1459l-0.5119-0.5831v-4.78h-3.765v2.373c0 2.175-0.031 2.412-0.371 2.844-0.2041 0.2594-0.625 0.5782-0.9356 0.708-0.3106 0.1298-0.6248 0.2254-0.6984 0.2126-0.7341-0.1278-0.9572-0.2486-1.409-0.7636l-0.5214-0.5942v-4.78h-2.573c-2.909 0-3.572-0.1668-4.008-1.01-0.2421-0.4681-0.2663-2.151-0.2256-15.86l0.04562-15.34 0.5926-0.4949 0.5921-0.4944h5.576v-4.997l0.6032-0.6032c0.5682-0.5682 0.6544-0.5985 1.487-0.5184 0.7177 0.069 0.9745 0.1864 1.365 0.6232 0.4801 0.5373 0.4808 0.5418 0.4808 3.017v2.479h3.765v-4.997l0.5816-0.5821c0.4967-0.4967 0.6998-0.5816 1.386-0.5816zm-1.672 10.12c-0.8491 2e-3 -1.798 6e-3 -2.863 0.0125l-7.958 0.0486-0.04563 5.27-0.04513 5.27 17.55-0.1004 0.9015-0.4076c1.133-0.5119 2.471-1.942 2.845-3.039 0.3494-1.025 0.3513-2.513 5e-3 -3.529-0.3257-0.956-1.389-2.206-2.357-2.77-1.074-0.626-2.086-0.7643-8.03-0.7541zm-10.91 14.68v10.45h8.636c8.302 0 8.673-0.0134 9.579-0.3525 1.098-0.4108 2.291-1.491 2.849-2.58 0.5236-1.022 0.6413-2.886 0.2552-4.048-0.3652-1.1-1.347-2.217-2.518-2.865l-0.9165-0.5074-8.942-0.0486z" stroke-width=".1711"/>
    <path d="m124.1 149.4a14.91 13.76 0 0 1-7.453 11.92 14.91 13.76 0 0 1-14.91 0 14.91 13.76 0 0 1-7.453-11.92" stroke-width=".2884"/>
    <path d="m109.5 168.6-0.0236 0.0126-3e-3 0.0266-0.0192-0.0186-0.0262 5e-3 0.0117-0.024-0.0132-0.0233 0.0265 4e-3 0.0181-0.0197 5e-3 0.0263z" stroke-width=".2567"/>
   </g>
   <text x="193.47108" y="203.99724" fill="#000000" font-family="sans-serif" font-size="96.8px" stroke="#000000" stroke-width="2.42" style="line-height:1.25" xml:space="preserve"><tspan x="193.47108" y="203.99724" font-family="'DejaVu Sans'" stroke="#000000" stroke-width="2.42">Freqtrade</tspan></text>
  </g>
 </g>
 <g transform="translate(-.5293 -59.8)">
  <use transform="matrix(.5686 0 0 .5651 704.5 87.9)" width="100%" height="100%" fill="#000000" xlink:href="#c6g67PWSoP"/>
  <text x="691.69672" y="107.94523" fill="#666666" font-family="sans-serif" font-size="17.62px" stroke-width=".4405" text-align="end" text-anchor="end" style="line-height:1.25" xml:space="preserve"><tspan x="691.69672" y="107.94523" text-align="end">powered</tspan><tspan x="691.69672" y="129.97223" text-align="end">by</tspan></text>
 </g>
</svg>
