<?xml version="1.0" encoding="UTF-8" standalone="no"?>
<svg
   xmlns:dc="http://purl.org/dc/elements/1.1/"
   xmlns:cc="http://creativecommons.org/ns#"
   xmlns:rdf="http://www.w3.org/1999/02/22-rdf-syntax-ns#"
   xmlns:svg="http://www.w3.org/2000/svg"
   xmlns="http://www.w3.org/2000/svg"
   xmlns:xlink="http://www.w3.org/1999/xlink"
   id="svg1557"
   version="1.1"
   viewBox="0 0 454.73947 309.55279"
   height="309.5528mm"
   width="454.73947mm">
  <defs
     id="defs1551">
    <linearGradient
       y2="26.575241"
       x2="249.15274"
       y1="57.745811"
       x1="174.20145"
       gradientUnits="userSpaceOnUse"
       id="linearGradient1312"
       xlink:href="#linearGradient1142" />
    <linearGradient
       id="linearGradient1142">
      <stop
         id="stop1138"
         offset="0"
         style="stop-color:#800080;stop-opacity:1" />
      <stop
         id="stop1140"
         offset="1"
         style="stop-color:#c83737;stop-opacity:1" />
    </linearGradient>
    <linearGradient
       y2="26.575241"
       x2="249.15274"
       y1="56.015697"
       x1="153.87447"
       gradientUnits="userSpaceOnUse"
       id="linearGradient1147"
       xlink:href="#linearGradient1142" />
    <linearGradient
       y2="26.575241"
       x2="249.15274"
       y1="57.745811"
       x1="174.20145"
       gradientUnits="userSpaceOnUse"
       id="linearGradient2187"
       xlink:href="#linearGradient1142" />
    <linearGradient
       y2="26.575241"
       x2="249.15274"
       y1="57.745811"
       x1="174.20145"
       gradientUnits="userSpaceOnUse"
       id="linearGradient2189"
       xlink:href="#linearGradient1142" />
    <linearGradient
       y2="26.575241"
       x2="249.15274"
       y1="56.015697"
       x1="153.87447"
       gradientUnits="userSpaceOnUse"
       id="linearGradient2481"
       xlink:href="#linearGradient1142" />
  </defs>
  <metadata
     id="metadata1554">
    <rdf:RDF>
      <cc:Work
         rdf:about="">
        <dc:format>image/svg+xml</dc:format>
        <dc:type
           rdf:resource="http://purl.org/dc/dcmitype/StillImage" />
        <dc:title></dc:title>
      </cc:Work>
    </rdf:RDF>
  </metadata>
  <g
     transform="translate(-26.725716,-4.0064964)"
     style="display:inline"
     id="layer10">
    <path
       transform="matrix(1.0227138,0,0,1.0923454,-62.375629,65.947121)"
       style="display:inline;opacity:0.35400008;fill:url(#linearGradient2189);fill-opacity:1;stroke:none;stroke-width:0.26458299px;stroke-linecap:butt;stroke-linejoin:miter;stroke-opacity:1"
       d="m 180.75601,13.562606 c 0.20328,0.39074 -11.41922,5.680039 -28.03374,18.482006 -5.31487,4.100662 -11.63721,9.484819 -16.54543,16.161349 0,3e-6 0,5e-6 -1e-5,7e-6 -3.08247,4.200038 -5.80364,9.230691 -6.88565,14.76245 -0.89678,4.472962 -0.6948,9.307895 0.50362,14.098031 1.21414,4.864276 3.37063,9.570743 6.03489,14.303507 2.85688,5.061536 6.17889,9.895464 9.79146,14.928934 6.66976,10.21188 14.8923,21.8276 21.16305,33.76656 -0.196,-0.5428 -0.37078,-1.09179 -0.52236,-1.64475 -0.6188,-2.25736 -0.84448,-4.55695 -0.56818,-6.75472 0.89373,-2.72011 2.42611,-5.14452 4.33134,-7.14033 2.10504,-2.19996 4.56326,-3.92046 7.08351,-5.3044 2.95955,-1.63267 6.05173,-2.88422 9.11506,-3.92258 7.43587,-2.52284 15.11934,-4.05303 22.27446,-5.35931 8.4563,-1.54885 16.59331,-2.79899 24.26885,-4.25541 0,0 0,0 1e-5,0 8.08553,-1.53898 15.20637,-3.12169 22.00367,-5.58864 3.1759,-1.153028 6.10558,-2.440247 8.78628,-4.008733 2.5485,-1.494698 4.78853,-3.178269 6.60525,-5.147896 1.83808,-1.988392 3.20173,-4.235473 4.01859,-6.557932 1.00035,-2.809125 1.22351,-5.777019 1.05919,-8.462197 -0.24867,-4.050872 -1.39201,-7.887816 -2.48346,-10.89721 0,0 0,-4e-6 0,-4e-6 -3.31734,-9.128305 -6.55615,-13.733249 -6.30949,-13.888429 -0.053,0.03337 3.92264,4.046005 7.82816,13.291557 0,1e-6 0,5e-6 0,5e-6 1.2846,3.035735 2.63685,6.96849 3.0743,11.321905 0.29133,2.897024 0.14545,6.164723 -0.88383,9.401434 -0.86033,2.673426 -2.32559,5.264178 -4.34607,7.555598 -1.98634,2.248593 -4.39754,4.168158 -7.10196,5.82094 -2.83675,1.737502 -5.90622,3.167242 -9.18431,4.420782 -6.9937,2.67538 -14.28843,4.42957 -22.41125,6.07406 0,0 0,0 -1e-5,0 -7.73409,1.57019 -15.87685,2.90953 -24.25025,4.51475 -7.10169,1.36559 -14.61358,2.90318 -21.71579,5.36146 -2.92062,1.01191 -5.80419,2.18502 -8.48395,3.68277 -2.27356,1.27712 -4.4203,2.76687 -6.14593,4.60477 -1.5412,1.63703 -2.77835,3.57564 -3.4494,5.67807 -1.08155,1.98673 -1.75197,4.14273 -2.1233,6.32868 -0.0909,0.53536 -0.1637,1.07108 -0.22017,1.60486 -7.24225,-11.17283 -16.76315,-22.38706 -24.46438,-32.31744 -3.61399,-5.09324 -6.97543,-10.074815 -9.89269,-15.344628 -2.73281,-4.923959 -4.95456,-9.960633 -6.22516,-15.247548 -1.26014,-5.25412 -1.39041,-10.590884 -0.32906,-15.572882 1.33361,-6.13201 4.34017,-11.501532 7.71231,-15.870649 0,0 0,-7e-6 0,-7e-6 5.33619,-6.923736 11.94689,-12.282471 17.48646,-16.276274 17.36226,-12.534245 29.53833,-16.404614 29.43537,-16.602516 z"
       id="path881-9-5-0" />
    <path
       transform="matrix(1.0227138,0,0,1.0923454,-62.375629,65.947121)"
       id="path881-9-5-0-6"
       d="m 212.92013,16.818371 c 0.16632,0.01903 0.19652,4.366865 -2.57356,11.87666 -1.43557,3.89773 -3.4104,8.19413 -6.29251,13.375089 -5.01729,9.020916 -11.19212,18.100558 -20.05989,29.737868 -7.61427,9.995597 -15.58822,19.70243 -25.32561,31.322142 -7.40111,8.83237 -16.87446,19.95899 -25.04669,30.03256 0,0 -1e-5,2e-5 -1e-5,2e-5 -6.48339,7.99581 -13.37592,16.63533 -19.20588,25.81207 -2.10365,3.31554 -4.10588,6.73438 -5.65247,10.31742 -1.10339,2.60718 -2.05482,5.24057 -2.13446,7.82853 -0.0316,0.96659 0.0393,1.90105 0.30439,2.72296 0.23071,0.74133 0.61585,1.4394 1.12536,2.00096 0,0 10e-6,1e-5 10e-6,1e-5 0.55143,0.63072 1.31346,1.14251 2.16241,1.56331 1.06612,0.52424 2.28305,0.85452 3.56786,1.09757 0,0 2e-5,0 2e-5,0 3.75335,0.70631 7.73598,0.48663 11.81877,0.0787 0.61015,-0.005 1.22049,-0.0172 1.8311,-0.0349 5.50038,-0.15974 10.95905,-0.80172 16.31514,-1.58742 -9.7246,-4.45987 -18.64368,-10.13466 -25.47431,-17.73116 -5.45147,-6.5907 -9.14075,-14.37049 -10.55857,-22.45344 -1.41373,-8.20206 -0.59606,-16.44236 1.31097,-23.93265 2.23187,-8.79018 5.89392,-16.9204 9.82454,-24.174925 9.78499,-18.06651 23.2127,-34.486486 32.44716,-45.589097 6.4096,-7.710245 12.03118,-14.222038 16.51371,-19.560806 8.48372,-10.10794 12.70256,-16.109762 12.93841,-15.957244 0.35795,0.231487 -3.56945,6.501775 -11.7153,16.946922 -4.29593,5.510272 -9.74398,12.185515 -15.96545,20.011282 -8.92847,11.236409 -22.08934,27.867584 -31.44133,45.632167 -3.7658,7.156251 -7.25606,15.081361 -9.31166,23.510881 -1.74211,7.16572 -2.48036,14.93835 -1.1045,22.49449 1.32697,7.42209 4.79943,14.61736 9.88328,20.73325 6.26906,8.20321 14.6724,14.69532 23.96141,20.23347 -5.5504,1.83715 -11.27695,3.557 -17.12018,4.79765 -0.64859,0.13771 -1.29776,0.26935 -1.94757,0.3945 -4.20937,0.45142 -8.55081,0.65363 -12.88347,-0.128 0,0 -2e-5,-1e-5 -2e-5,-1e-5 -1.50849,-0.27095 -3.04359,-0.70755 -4.52041,-1.41494 -1.20308,-0.57307 -2.34879,-1.37656 -3.31289,-2.43594 0,0 -2e-5,-2e-5 -2e-5,-2e-5 -0.88198,-0.99021 -1.52758,-2.15335 -1.90855,-3.39547 -0.40236,-1.34228 -0.52456,-2.69554 -0.45983,-3.98119 0.17333,-3.32592 1.23376,-6.39281 2.45971,-9.14476 1.68332,-3.84802 3.78748,-7.42899 5.96087,-10.81234 6.01581,-9.3766 13.02686,-18.08022 19.58566,-26.05212 0,0 1e-5,-2e-5 1e-5,-2e-5 8.37972,-10.19036 17.7542,-21.00269 25.34369,-29.86326 9.90651,-11.566417 17.87921,-20.998327 25.67844,-30.875877 9.06828,-11.488717 15.3019,-20.20616 20.57258,-29.032807 3.0146,-5.049286 5.09745,-9.154602 6.70152,-12.934527 3.03673,-7.16612 3.49596,-11.45184 3.70812,-11.427558 z"
       style="display:inline;opacity:0.35400008;fill:url(#linearGradient1312);fill-opacity:1;stroke:none;stroke-width:0.26458299px;stroke-linecap:butt;stroke-linejoin:miter;stroke-opacity:1" />
    <path
       id="path863"
       d="M 0.71745376,78.884634 C 24.052884,53.573214 201.19881,26.577273 201.19881,26.577273 130.50602,74.418518 123.50067,85.847515 88.354724,119.92438 58.997672,89.729166 26.463654,74.847563 0.71745376,78.884634 Z"
       style="display:inline;opacity:0.68387098;fill:#541067;fill-opacity:1;stroke:none;stroke-width:0.43081239px;stroke-linecap:butt;stroke-linejoin:miter;stroke-opacity:1"
       transform="translate(121.76859,1.8775334)" />
    <path
       id="path865"
       d="M 201.19881,26.577273 61.047689,95.983503 C 44.322243,84.927699 33.612135,82.441057 33.612135,82.441057 Z"
       style="display:inline;opacity:0.68387098;fill:#541067;fill-opacity:1;stroke:none;stroke-width:0.43081239px;stroke-linecap:butt;stroke-linejoin:miter;stroke-opacity:1"
       transform="translate(121.76859,1.8775334)" />
    <path
       id="path867"
       d="m 201.19881,26.577163 c 0,0 -91.77189,62.069601 -112.844056,93.347127 C 64.447758,96.584265 61.047689,95.983503 61.047689,95.983503 Z"
       style="display:inline;opacity:0.68399999;fill:#541067;fill-opacity:1;stroke:none;stroke-width:0.43081239px;stroke-linecap:butt;stroke-linejoin:miter;stroke-opacity:1"
       transform="translate(121.76859,1.8775334)" />
    <path
       id="path875"
       d="m 108.87298,2.128963 c 0,0 120.55939,99.934877 134.22536,161.678747 -53.95851,-42.51062 -95.60984,-34.32534 -95.60984,-34.32534 0,0 2.57041,-23.6364 -59.13421,-9.55679 C 95.81932,49.527519 108.87298,2.128963 108.87298,2.128963 Z"
       style="display:inline;opacity:0.88064497;fill:#1d6525;fill-opacity:1;stroke:none;stroke-width:0.43081239px;stroke-linecap:butt;stroke-linejoin:miter;stroke-opacity:1"
       transform="translate(121.76859,1.8775334)" />
    <path
       id="path1551"
       d="m 201.19881,26.577353 c -14.23337,42.027053 -7.10191,80.124937 9.56117,116.469887 0,0 -61.8698,-41.35529 -122.405259,-23.12275 C 107.18554,89.131464 201.19881,26.577273 201.19881,26.577273"
       style="display:inline;opacity:0.7741935;fill:#2d2590;fill-opacity:1;stroke:none;stroke-width:0.19736077px;stroke-linecap:butt;stroke-linejoin:miter;stroke-opacity:1"
       transform="translate(121.76859,1.8775334)" />
    <path
       style="display:inline;opacity:0.68387098;fill:#b42724;fill-opacity:0.83921569;stroke:none;stroke-width:0.43081239px;stroke-linecap:butt;stroke-linejoin:miter;stroke-opacity:1"
       d="M 0.71745376,78.884634 C 24.052884,53.573214 86.823244,9.478875 108.87298,2.128963 97.113121,49.836574 88.354724,119.92438 88.354724,119.92438 58.997672,89.729166 26.463654,74.847563 0.71745376,78.884634 Z"
       id="path2269"
       transform="translate(121.76859,1.8775334)" />
  </g>
  <g
     transform="translate(-26.725716,-4.0064964)"
     style="display:inline"
     id="layer7">
    <g
       style="display:inline;fill:#ffffff"
       id="g2300"
       transform="matrix(0.99993492,0,0,0.99993492,13.017271,44.180298)">
      <g
         style="stroke-width:0.25929999"
         id="g2294">
        <path
           d="m 105.4,261.6 c -19.47,-1.85 -35.23,-16.54 -38.53,-35.89 -0.4581,-2.692 -0.5147,-3.864 -0.4014,-8.32 0.1862,-7.325 1.102,-11.04 4.352,-17.63 2.345,-4.762 4.501,-7.705 8.502,-11.6 6.376,-6.215 13.48,-9.949 22.12,-11.64 4.197,-0.819 11.28,-0.819 15.47,0 19.33,3.772 33.33,19.33 35.07,38.98 1.593,17.94 -9.27,35.69 -26.24,42.86 -6.231,2.634 -13.89,3.851 -20.36,3.236 z m 10.85,-9.601 c 6.512,-1.319 12.3,-4.492 17.2,-9.425 4.388,-4.421 7.364,-9.819 8.95,-16.23 0.5289,-2.139 0.6104,-3.112 0.6186,-7.391 0.008,-3.87 -0.0941,-5.4 -0.4733,-7.131 -2.953,-13.48 -13.02,-23.46 -26.61,-26.37 -3.064,-0.6563 -10.36,-0.6537 -13.48,0.005 -7.184,1.515 -12.92,4.712 -17.96,10 -4.569,4.801 -7.418,10.37 -8.793,17.18 -0.4928,2.44 -0.3983,10.19 0.1562,12.8 2.865,13.5 13.06,23.82 26.23,26.55 1.415,0.2939 2.981,0.5846 3.48,0.6458 1.924,0.2362 8.245,-0.1388 10.69,-0.6345 z"
           id="path2276" />
        <path
           d="m 83.16,168.3 c -2.404,-0.5663 -4.612,-2.45 -5.748,-4.904 l -0.6606,-1.426 -0.0025,-13.49 c -0.0016,-7.813 0.1111,-14.4 0.2674,-15.64 0.7322,-5.839 4.019,-12.22 8.409,-16.33 4.327,-4.048 10.12,-6.683 16.08,-7.311 2.959,-0.3119 11.38,-0.3126 14.79,-9.7e-4 12.42,1.136 22.89,11.12 24.51,23.38 0.1875,1.421 0.2592,6.997 0.2081,16.17 l -0.078,14 -0.7641,1.379 c -1.522,2.748 -3.9,4.154 -7.411,4.381 l -2.284,0.148 -0.0958,-6.066 c -0.0885,-5.606 -0.1406,-6.174 -0.687,-7.482 -1.273,-3.046 -3.532,-5.171 -6.626,-6.229 -1.454,-0.4975 -2.167,-0.524 -14.06,-0.524 -11.95,0 -12.61,0.0246 -14.16,0.5343 -3.001,0.9858 -5.57,3.443 -6.693,6.402 -0.5024,1.323 -0.5819,2.158 -0.7042,7.391 l -0.1379,5.9 -1.584,-0.026 c -0.871,-0.0144 -2.023,-0.1296 -2.56,-0.2562 z m 16.05,-27.61 c 1.832,-0.5148 4.295,-2.225 5.43,-3.77 1.944,-2.648 2.549,-5.597 1.82,-8.872 -2.544,-11.44 -19.12,-10.91 -20.92,0.6703 -0.738,4.741 1.663,9.408 5.848,11.37 2.763,1.293 4.817,1.452 7.827,0.6065 z m 27.65,-0.5658 c 2.261,-1.061 4.128,-2.924 5.204,-5.195 0.7676,-1.62 0.828,-1.947 0.828,-4.471 0,-2.523 -0.0607,-2.851 -0.8259,-4.466 -3.247,-6.855 -12.03,-8.484 -17.29,-3.209 -5.586,5.601 -3.419,15.18 4.035,17.83 1.06,0.3775 1.929,0.4701 3.834,0.409 2.128,-0.0682 2.702,-0.1906 4.212,-0.8989 z"
           id="path2278" />
        <path
           d="m 114.3,168.4 -1.75,-0.0907 v -12.68 h 3.915 c 4.42,0 5.304,0.2398 6.194,1.679 0.4788,0.7747 0.5227,1.285 0.5227,6.066 v 5.221 l -3.566,-0.0508 c -1.961,-0.0279 -4.353,-0.0916 -5.316,-0.1415 z"
           id="path2280" />
        <path
           d="m 94.68,163.2 c 0.09582,-5.9 0.1486,-6.123 1.695,-7.142 0.6299,-0.4153 1.275,-0.4798 4.812,-0.4813 l 4.084,-0.002 v 6.208 c 0,4.044 -0.0946,6.267 -0.2715,6.376 -0.1493,0.0923 -2.552,0.2339 -5.339,0.3147 l -5.068,0.1469 z"
           id="path2282" />
        <path
           d="m 67.36,146.2 c -0.2853,-0.1168 -0.752,-0.4717 -1.037,-0.7888 -0.4881,-0.5425 -0.5186,-0.9415 -0.5186,-6.767 v -6.191 l 0.6483,-0.6457 c 0.4764,-0.4744 1.049,-0.6924 2.158,-0.8218 l 1.51,-0.1761 -0.1396,0.8807 c -0.07681,0.4844 -0.2152,4.002 -0.3076,7.818 l -0.1679,6.937 -0.8134,-0.0164 c -0.4474,-0.009 -1.047,-0.112 -1.332,-0.2287 z"
           id="path2284" />
        <path
           d="m 94.2,133.3 c -2.224,-1.356 -2.107,-4.661 0.2077,-5.859 1.658,-0.8575 3.699,-0.3058 4.652,1.258 1.835,3.01 -1.81,6.461 -4.86,4.601 z"
           id="path2286" />
        <path
           d="m 121.5,133.7 c -2.088,-0.6881 -3.072,-2.404 -2.49,-4.344 0.7643,-2.551 4.061,-3.203 5.926,-1.172 1.758,1.914 0.7792,4.806 -1.88,5.554 -0.4575,0.1287 -1.098,0.1132 -1.556,-0.0376 z"
           id="path2288" />
        <path
           d="m 148.3,140.3 c 0,-3.402 -0.0769,-6.922 -0.1709,-7.821 l -0.1709,-1.635 1.662,0.1679 c 1.409,0.1423 1.77,0.2873 2.375,0.953 l 0.7131,0.7851 v 5.814 c 0,3.223 -0.1148,6.116 -0.2577,6.491 -0.31,0.8155 -1.645,1.431 -3.105,1.431 h -1.046 z"
           id="path2290" />
        <path
           d="m 103.5,241 c -0.7859,-0.6613 -0.7979,-0.7077 -0.7979,-3.089 v -2.418 l -2.826,-0.0878 c -4.372,-0.1358 -3.916,1.783 -3.916,-16.49 v -15.41 l 0.5835,-0.4868 c 0.4895,-0.4083 1.033,-0.4881 3.371,-0.4954 l 2.788,-0.009 v -2.574 c 0,-2.49 0.0231,-2.593 0.7019,-3.126 0.7697,-0.6054 1.672,-0.5377 2.475,0.1859 0.3738,0.3368 0.4538,0.8592 0.4538,2.962 v 2.553 h 4.149 v -2.574 c 0,-2.472 0.0271,-2.596 0.6833,-3.112 0.3758,-0.2956 0.8852,-0.5375 1.132,-0.5375 0.2468,0 0.7562,0.2419 1.132,0.5375 0.655,0.5152 0.6833,0.6425 0.6833,3.075 v 2.537 l 2.06,0.1412 c 3.312,0.227 5.764,1.62 7.522,4.274 1.022,1.543 1.359,2.83 1.338,5.103 -0.0195,2.078 -0.8599,4.137 -2.443,5.987 l -0.8894,1.039 1.138,1.294 c 1.975,2.244 2.75,5.198 2.067,7.868 -1.146,4.474 -4.783,7.289 -9.431,7.299 l -1.361,0.003 v 2.418 c 0,2.193 -0.056,2.471 -0.6002,2.982 -0.75,0.7046 -1.833,0.7241 -2.512,0.0452 -0.4458,-0.4458 -0.5186,-0.8644 -0.5186,-2.982 v -2.464 h -4.149 v 2.313 c 0,2.731 -0.0901,3.032 -1.056,3.532 -0.9314,0.4817 -0.8394,0.4968 -1.777,-0.292 z m 15.04,-10.05 c 1.688,-0.8913 2.595,-2.33 2.749,-4.358 0.1616,-2.138 -0.5574,-3.607 -2.363,-4.828 l -1.246,-0.8428 H 99.59 v 10.63 h 8.906 c 8.822,0 8.916,-0.006 10.05,-0.6034 z m -0.3133,-14.42 c 4.042,-2.062 4.163,-7.616 0.2086,-9.58 -1.153,-0.5724 -1.628,-0.6274 -6.481,-0.7483 -2.88,-0.0718 -6.842,-0.0443 -8.803,0.0608 l -3.566,0.1914 v 10.58 h 8.827 c 8.226,0 8.894,-0.0342 9.814,-0.5034 z"
           id="path2292" />
      </g>
      <path
         style="stroke-width:0.18340001"
         d="m 108,87.11 c -1.062,-0.4155 -1.351,-0.6802 -1.843,-1.684 -0.3988,-0.815 -0.4784,-1.19 -0.4081,-1.922 0.1746,-1.817 1.643,-3.119 3.519,-3.119 3.101,0 4.679,3.68 2.509,5.85 -1.008,1.008 -2.533,1.361 -3.776,0.8744 z"
         id="path2296" />
      <rect
         style="stroke-width:0.28549999"
         x="83.160004"
         y="146.5"
         width="51.759998"
         height="21.709999"
         ry="2.1700001"
         id="rect2298" />
    </g>
    <path
       style="display:inline;stroke-width:0.17108887"
       d="m 122.41015,117.20555 c -1.58089,-0.0217 -3.30878,0.38637 -4.92668,1.18392 -2.68482,1.32292 -4.86868,4.10673 -5.63763,7.18753 -0.40747,1.6319 -0.24988,4.31472 0.34548,5.88162 1.02593,2.70082 2.87981,4.87168 5.15766,6.04061 l 1.27792,0.65575 5.3e-4,3.89275 10e-4,3.89375 -0.38508,0.005 c -6.0906,0.0849 -11.30926,1.24992 -16.13895,3.60077 -3.730759,1.81588 -6.627569,3.95874 -9.746359,7.20753 -2.81182,2.9298 -5.40665,6.80755 -6.69057,9.99934 l -0.49037,1.21793 -2.82581,0.0932 c -3.1048,0.10279 -4.26672,0.33417 -5.80763,1.15692 -2.00886,1.07293 -3.41977,2.69082 -4.39471,5.04167 l -0.49637,1.19792 v 14.88904 l 0.43468,1.11492 c 1.13592,2.91281 3.44777,5.10667 6.22859,5.90762 0.55876,0.16109 1.75288,0.34128 2.65283,0.40007 l 1.63689,0.1068 0.10329,4.70669 c 0.0909,4.14073 0.14779,4.85668 0.47477,5.95961 1.6199,5.46465 5.69463,9.46439 11.02929,10.8293 0.76655,0.19568 1.4159,0.37758 1.4439,0.40458 0.0271,0.027 -0.35808,0.30458 -0.85584,0.61665 -2.62283,1.6449 -5.66164,4.12473 -8.35846,6.82355 -3.62576,3.62777 -6.43158,7.27053 -8.37845,10.8793 -1.04694,1.93987 -0.85675,1.82988 -2.32085,1.33692 -1.85088,-0.62226 -1.92188,-0.81925 -1.68789,-4.6797 0.17358,-2.86281 -0.32058,-4.67869 -1.67889,-6.16659 -2.38785,-2.61583 -6.1676,-2.56184 -8.98142,0.12838 -0.73215,0.69975 -2.44184,3.0658 -2.44184,3.37978 0,0.0551 -0.38468,0.71455 -0.85534,1.46591 -0.47057,0.75095 -0.85585,1.4039 -0.85585,1.44991 0,0.0465 -0.30788,0.58766 -0.68435,1.20292 -0.37648,0.61516 -0.68486,1.15592 -0.68486,1.20292 0,0.16919 -2.27085,3.77076 -2.60983,4.14073 -0.19219,0.20899 -0.62156,0.46977 -0.95414,0.57956 -0.54546,0.17999 -0.63396,0.16309 -0.90644,-0.17349 -0.49847,-0.61556 -0.54506,-1.65189 -0.16999,-3.78175 0.19069,-1.08193 0.38798,-2.15986 0.43867,-2.39584 0.0507,-0.23529 0.24599,-1.27492 0.43368,-2.30985 0.18768,-1.03494 0.38167,-2.07487 0.43117,-2.30985 0.085,-0.40448 0.73055,-3.79975 0.86234,-4.53571 0.0743,-0.41437 0.75545,-4.13973 0.84475,-4.6207 0.035,-0.18828 0.22738,-1.22792 0.42767,-2.30985 0.20029,-1.08194 0.39317,-2.12187 0.42817,-2.30986 1.02093,-5.49064 1.08293,-6.48157 0.51487,-8.27246 -0.44837,-1.41391 -0.99944,-2.33085 -1.88888,-3.13979 -2.43484,-2.21486 -6.1306,-1.87288 -8.75043,0.81075 -0.88265,0.90404 -1.37592,1.67489 -2.65183,4.14173 -1.09393,2.11486 -2.33885,4.5087 -4.24973,8.17147 -0.68755,1.31792 -1.55389,2.98981 -1.92487,3.71676 -0.71175,1.39291 -1.92488,2.70083 -2.50584,2.70083 -0.18399,0 -1.65189,-0.45488 -3.26278,-1.01094 -2.07987,-0.71785 -3.0868,-0.98603 -3.47678,-0.92504 -1.91787,0.30008 -2.80682,2.38085 -1.68089,3.93474 0.47107,0.65026 0.64616,0.73386 3.86275,1.84689 3.82875,1.32491 4.84968,1.4469 6.60157,0.78964 1.04993,-0.39397 3.0738,-1.90987 3.49577,-2.61783 0.15209,-0.25538 0.37118,-0.56376 0.48687,-0.68485 0.11569,-0.12109 0.45147,-0.68216 0.74605,-1.24692 0.29458,-0.56477 0.90014,-1.71989 1.34591,-2.56683 0.86405,-1.6409 2.57584,-4.95269 4.86569,-9.4124 0.97104,-1.89188 1.6169,-2.93681 2.08987,-3.37978 1.26791,-1.18992 2.19585,-0.63736 2.19585,1.30792 0,0.60396 -0.38857,3.0748 -0.77005,4.89568 -0.0906,0.43267 -0.74985,3.90375 -0.86134,4.53471 -0.0332,0.18819 -0.18499,0.99684 -0.33688,1.79688 -0.15189,0.80005 -0.30438,1.6089 -0.33888,1.79689 -0.0872,0.47576 -0.77665,4.20272 -0.85484,4.6207 -0.0352,0.18818 -0.21619,1.15092 -0.40207,2.13886 -0.18589,0.98793 -0.53687,2.87481 -0.77965,4.19272 -0.24279,1.31792 -0.48548,2.58883 -0.53947,2.82382 -0.054,0.23528 -0.1025,1.12093 -0.1073,1.96787 -0.0198,3.46278 1.79089,6.1266 4.6627,6.86256 2.57084,0.65854 5.17367,-0.48767 7.14454,-3.1458 0.48567,-0.65516 0.88344,-1.27792 0.88344,-1.38391 0,-0.10619 0.0768,-0.19299 0.17099,-0.19299 0.0941,0 0.17099,-0.088 0.17099,-0.19559 0,-0.10749 0.30838,-0.68335 0.68485,-1.27991 0.37648,-0.59616 0.68436,-1.12293 0.68436,-1.17092 0,-0.0477 0.30788,-0.58967 0.68436,-1.20493 0.37647,-0.61516 0.68485,-1.19392 0.68485,-1.28691 0,-0.0925 0.0769,-0.16849 0.17099,-0.16849 0.0941,0 0.17099,-0.0875 0.17099,-0.19499 0,-0.16539 0.44417,-0.94984 1.4929,-2.63483 0.11509,-0.18489 0.33558,-0.58606 0.48987,-0.89144 0.34708,-0.68715 1.30092,-1.5429 1.88288,-1.68889 0.33758,-0.0847 0.50127,-0.018 0.72395,0.29428 0.52937,0.74215 0.53117,0.76565 0.29028,3.91775 -0.22138,2.89681 0.51357,5.08266 2.23886,6.65956 0.81994,0.74935 1.20892,0.94694 3.44777,1.74989 l 0.38358,0.13789 -0.57207,1.5879 c -2.06986,5.74261 -2.9728,11.59924 -2.78981,18.09881 0.16729,5.95461 0.96813,10.32933 2.88281,15.74897 5.24366,14.82904 17.29887,26.48828 32.377889,31.30797 4.04274,1.29091 9.14441,2.15285 13.53912,2.28586 h 5.3e-4 c 5.81362,0.17637 12.2792,-0.72946 17.36887,-2.43585 12.83916,-4.29972 23.39847,-13.31914 29.41808,-25.14837 3.71776,-7.29952 5.50765,-14.67903 5.51265,-22.73852 0.007,-8.79142 -2.06087,-17.04888 -6.10261,-24.3684 -0.60776,-1.10193 -1.10493,-2.08087 -1.10493,-2.17686 0,-0.21919 1.72389,-1.50191 2.32685,-1.73089 0.60976,-0.23189 1.91588,0.39228 3.0638,1.46391 0.47057,0.43926 1.06693,0.92394 1.32592,1.07693 0.25878,0.15299 0.47076,0.32798 0.47076,0.38907 0,0.0609 0.47547,0.32418 1.05694,0.58506 1.41391,0.63456 3.59376,0.78485 4.94968,0.34148 3.74975,-1.22592 5.06367,-5.67063 2.9838,-10.09934 -0.22118,-0.47057 -0.57206,-1.24092 -0.77965,-1.71089 -0.20759,-0.47057 -0.62996,-1.39491 -0.93854,-2.05387 -0.30858,-0.65885 -0.81044,-1.73688 -1.11592,-2.39585 -0.30508,-0.65886 -0.84485,-1.81387 -1.19893,-2.56682 -0.94274,-2.00288 -1.11692,-2.68784 -0.88234,-3.47079 0.15369,-0.51296 0.28518,-0.65435 0.63526,-0.68335 1.18492,-0.0981 1.14293,-0.13759 15.309,14.33906 3.24679,3.31779 6.31459,6.33659 6.81556,6.70957 1.63989,1.21793 2.61483,1.5539 4.5637,1.57189 1.5319,0.0143 1.80988,-0.0326 2.65283,-0.44716 2.51784,-1.23891 3.73876,-3.86376 3.24779,-6.98155 -0.24818,-1.5749 -0.42827,-2.00287 -2.52384,-5.98961 -0.42047,-0.80005 -1.32291,-2.53284 -2.00387,-3.85075 -1.23492,-2.38784 -3.0088,-5.79362 -3.60976,-6.93055 -0.17399,-0.32938 -0.32608,-0.63776 -0.33788,-0.68485 -0.0118,-0.0471 -0.10239,-0.27939 -0.20159,-0.51637 -0.30038,-0.71805 -0.35767,-1.62989 -0.13539,-2.15386 0.14099,-0.33198 1.03493,-1.08793 2.71183,-2.29185 2.19985,-1.5809 2.53583,-1.88688 2.79281,-2.54384 0.25039,-0.64016 0.26189,-0.85824 0.0807,-1.5359 -0.36847,-1.37791 -1.90787,-2.22785 -3.16479,-1.74788 -0.60826,0.23188 -5.33266,3.64576 -5.94562,4.29572 -1.13792,1.20792 -1.68689,2.68582 -1.68988,4.5507 -0.003,2.02387 0.52906,3.39678 3.50677,9.04542 0.54576,1.03493 1.4509,2.76782 2.01187,3.85075 0.56086,1.08193 1.32791,2.54584 1.70489,3.25179 1.5469,2.89881 1.73988,3.34978 1.81388,4.23972 0.0944,1.13793 -0.22699,1.5869 -1.04893,1.46391 -1.12793,-0.16799 -0.88855,0.0516 -8.93042,-8.18847 -12.90921,-13.22914 -13.0192,-13.32914 -15.17906,-14.13908 -0.91234,-0.33998 -3.1278,-0.46567 -3.83175,-0.21709 -1.81588,0.64206 -3.0978,1.69589 -3.82775,3.1458 -0.78885,1.5669 -0.72056,4.45671 0.15139,6.39659 0.17449,0.38817 0.48887,1.09092 0.69835,1.56089 0.20949,0.47057 0.57876,1.27892 0.82075,1.79689 0.24198,0.51766 0.45087,0.97973 0.46477,1.02693 0.0138,0.0471 0.29988,0.66326 0.63576,1.36891 0.81334,1.70989 1.5589,3.31678 1.5869,3.42278 0.0127,0.0471 0.24098,0.54726 0.50736,1.11193 1.13393,2.40384 0.51647,3.91074 -1.23592,3.0158 -0.37557,-0.19159 -1.08793,-0.71686 -1.58189,-1.16692 -2.10287,-1.91388 -3.42078,-2.56384 -5.52565,-2.72583 -1.87687,-0.14429 -2.83281,0.16459 -4.72469,1.5259 l -1.4379,1.03494 -0.44468,-0.51687 c -0.24438,-0.28428 -0.94493,-1.11493 -1.55689,-1.84488 -2.61184,-3.1178 -7.64551,-7.50751 -11.07928,-9.66137 -0.49417,-0.30978 -0.89845,-0.61726 -0.89845,-0.68336 0,-0.0661 0.55417,-0.25348 1.23193,-0.41617 3.66976,-0.88075 7.38351,-3.74876 9.38638,-7.24753 1.6049,-2.80482 2.04587,-5.05267 2.04587,-10.42932 v -3.82776 l 1.41191,-0.003 c 2.96881,-0.006 5.20366,-0.84184 7.14153,-2.66982 1.25292,-1.18193 2.13287,-2.63483 2.68283,-4.42871 0.28268,-0.92215 0.31488,-1.70689 0.31488,-7.7005 0,-5.84962 -0.0376,-6.80856 -0.30228,-7.7675 -0.90524,-3.27679 -3.51377,-5.90961 -6.72856,-6.78856 -0.65556,-0.17939 -2.04387,-0.30988 -3.93475,-0.36997 l -2.92181,-0.0928 -0.70545,-1.6099 c -3.60877,-8.24046 -11.03928,-15.149 -19.63872,-18.2588 -3.1228,-1.12893 -7.26453,-1.99587 -9.53738,-1.99587 -0.51497,0 -1.5259,-0.05 -2.24586,-0.1108 l -1.30891,-0.11029 v -7.59551 l 1.4549,-0.72046 c 2.43085,-1.20492 4.28273,-3.32578 5.36265,-6.1396 0.39748,-1.03593 0.44318,-1.38991 0.44318,-3.46377 0,-2.07387 -0.0457,-2.42784 -0.44318,-3.46378 -0.24358,-0.63456 -0.70235,-1.59489 -1.01993,-2.13286 -0.63576,-1.07793 -2.76082,-3.30178 -3.15379,-3.30178 -0.1366,0 -0.24819,-0.0652 -0.24819,-0.14539 0,-0.16649 -2.09286,-1.15893 -2.73882,-1.29792 -0.23528,-0.0509 -0.77425,-0.16709 -1.19792,-0.25818 -0.48477,-0.1043 -0.99514,-0.15919 -1.5219,-0.16649 z m -0.13089,7.17653 c 0.93774,0.0189 1.88388,0.39938 2.61983,1.23792 1.5469,1.76189 1.06193,4.53271 -0.96864,5.53664 -1.36191,0.67326 -2.65682,0.63246 -3.87774,-0.12229 -0.71856,-0.44407 -1.39291,-1.5749 -1.5279,-2.56483 -0.33198,-2.42185 1.69189,-4.12974 3.75475,-4.08774 z m -1.5869,28.59814 c 0.90865,0.002 1.89788,0.0118 2.98381,0.0271 6.36059,0.0896 7.53651,0.20849 10.53931,1.06493 4.55271,1.29692 8.46245,3.61976 11.95923,7.10154 3.45377,3.44477 5.72362,7.30652 7.03654,11.97922 0.96334,3.42478 1.01193,4.35271 1.01193,19.14875 0,14.61905 0.0241,14.20908 -0.94504,16.10895 -0.86084,1.68489 -2.59983,3.1658 -4.6167,3.93175 -0.67935,0.25818 -1.32191,0.36977 -2.52583,0.43967 H 97.378781 c -2.18786,-0.19469 -3.66476,-0.86854 -5.16066,-2.29485 -1.11893,-1.06693 -1.6379,-1.85788 -2.21586,-3.37378 l -0.38557,-1.01294 v -14.28907 c 0,-12.95915 0.0281,-14.43906 0.30278,-15.85896 1.96987,-10.21934 8.88142,-18.27882 18.388799,-21.43861 3.62477,-1.20292 6.02461,-1.5429 12.38919,-1.5279 z m 14.54906,10.92929 c -1.31592,0.005 -2.65783,0.25698 -3.96474,0.78815 -4.44671,1.80688 -7.12354,6.40758 -6.49258,11.15927 0.63586,4.78269 3.93074,8.29046 8.64543,9.2034 4.46771,0.86465 9.38739,-1.62889 11.33927,-5.74762 0.37927,-0.80005 0.78295,-1.86188 0.89694,-2.35985 0.29238,-1.27692 0.24918,-3.70076 -0.0888,-5.00567 -1.26991,-4.90669 -5.63763,-8.05148 -10.33932,-8.03548 z m -26.02831,0.0266 c -4.5417,-0.0787 -8.84742,2.76382 -10.309329,7.41751 -0.50636,1.6079 -0.53496,4.82869 -0.0551,6.2456 1.403909,4.14673 4.576699,6.90055 8.662439,7.51751 1.33991,0.20219 1.65989,0.20259 2.90981,0.006 6.76856,-1.06793 10.7293,-7.44351 8.65844,-13.93909 -0.83225,-2.61083 -2.85382,-4.94068 -5.33766,-6.1526 -1.4689,-0.71656 -3.0088,-1.06693 -4.5227,-1.09393 z m -0.15339,7.02054 c 0.32308,5.3e-4 0.65436,0.0435 0.98814,0.13339 0.91984,0.24769 2.16286,1.36091 2.43284,2.17986 0.60516,1.83388 -0.14749,3.72576 -1.80788,4.54371 -2.17986,1.07392 -4.6827,-0.1288 -5.21567,-2.50584 -0.51576,-2.30185 1.34192,-4.35472 3.60277,-4.34972 z m 26.23829,0.0125 c 0.58657,0.0107 1.19893,0.15789 1.80189,0.46527 0.75375,0.38458 1.40491,1.16692 1.69689,2.04087 0.67015,2.00187 -0.58427,4.13873 -2.71483,4.6247 -0.42357,0.0966 -0.80875,0.16849 -0.85584,0.15999 -2.26485,-0.41017 -3.34878,-1.41291 -3.54077,-3.27879 -0.24248,-2.34885 1.5179,-4.05074 3.61276,-4.01274 z m -52.216599,4.01774 -0.13389,1.09293 c -0.0738,0.60076 -0.18159,4.13473 -0.23968,7.85249 l -0.1058,6.75956 -1.11992,0.0502 c -1.23592,0.055 -1.92188,-0.26288 -2.62983,-1.21792 -0.34758,-0.46917 -0.35798,-0.66106 -0.35798,-6.61857 0,-5.92962 0.0119,-6.1516 0.35298,-6.60857 0.70505,-0.94434 1.15992,-1.14793 2.74982,-1.23092 z m 77.774939,0.003 1.6029,0.0712 c 1.85788,0.0822 2.48683,0.36088 3.0418,1.34891 0.34428,0.61276 0.35847,0.86704 0.35847,6.49258 0,6.64457 -0.0117,6.70956 -1.27891,7.45251 -0.59336,0.34768 -0.94744,0.42218 -2.01187,0.42218 h -1.29192 l -0.10129,-7.14454 c -0.0556,-3.92974 -0.15039,-7.48151 -0.21059,-7.89249 z m -38.71748,44.95707 c 2.45784,0 4.91568,0.1362 6.58857,0.40858 5.25766,0.85634 10.24934,2.59883 14.61905,5.10367 12.19921,6.99054 20.18869,19.19875 21.66859,33.08784 0.26758,2.51284 0.27098,7.14354 0.006,9.2414 -1.25892,9.96535 -5.47664,18.66879 -12.40919,25.59834 -7.30853,7.30852 -16.51893,11.61924 -26.79826,12.55918 -6.29459,0.57116 -12.82916,-0.32838 -18.81877,-2.59183 -15.348999,-5.80063 -26.118299,-19.86871 -27.728199,-36.21765 -0.22428,-2.28085 -0.22368,-6.59057 0.002,-8.71643 0.84915,-8.01548 4.08074,-15.86897 9.1904,-22.34854 1.5869,-2.01087 5.63464,-5.92762 7.7475,-7.49652 5.885619,-4.37171 12.189209,-7.04954 19.338739,-8.21346 1.67289,-0.27248 4.13073,-0.40858 6.58857,-0.40858 z m 0.49537,9.20741 c -0.25078,-0.003 -0.50227,-0.002 -0.75405,5.2e-4 -0.25579,0.003 -0.51187,0.009 -0.76855,0.0176 -8.84143,0.30298 -16.37894,3.49677 -22.648529,9.59738 -5.63963,5.48564 -9.1724,12.67917 -9.96435,20.26868 -0.31878,3.0588 -0.11599,7.98148 0.43817,10.62931 1.41491,6.75955 4.45271,12.41918 9.2364,17.20887 5.599639,5.60564 12.719169,8.99842 20.628659,9.82636 1.93387,0.20259 6.35558,0.0752 8.41545,-0.24268 7.27353,-1.12193 13.70911,-4.38772 18.88877,-9.57938 1.04093,-1.04393 2.37485,-2.53483 2.96381,-3.31478 6.0356,-7.98549 8.26046,-17.74885 6.27159,-27.50822 -3.16579,-15.53899 -16.9089,-26.73826 -32.70787,-26.90825 z m 2.58483,11.24926 c 0.68656,0 0.88964,0.0849 1.38591,0.58157 l 0.58156,0.58206 v 4.99667 h 1.47291 c 3.44777,0 6.28759,1.5139 8.12547,4.33172 0.97373,1.4929 1.4149,2.98381 1.42791,4.82369 0.006,0.84714 -0.096,1.92587 -0.22709,2.39584 -0.38028,1.36491 -1.32792,3.0338 -2.30085,4.05474 l -0.89994,0.94403 0.94954,1.01494 c 1.18392,1.26392 1.80188,2.39684 2.23685,4.09773 0.40028,1.5649 0.41957,2.48284 0.0863,4.05574 -0.53276,2.51383 -2.34785,5.00067 -4.5647,6.25459 -1.28992,0.72955 -3.30079,1.22592 -4.96468,1.22592 h -1.34191 v 2.37285 c 0,2.17485 -0.031,2.41184 -0.37098,2.84381 -0.84354,1.07193 -2.18285,1.13593 -3.0528,0.14589 l -0.51187,-0.58306 v -4.77969 h -3.76475 v 2.37285 c 0,2.17486 -0.031,2.41184 -0.37098,2.84381 -0.20408,0.25938 -0.62496,0.57816 -0.93554,0.70796 -0.31058,0.12979 -0.62475,0.22538 -0.69835,0.21258 -0.73405,-0.12779 -0.95714,-0.24858 -1.40891,-0.76355 l -0.52136,-0.59416 v -4.77969 h -2.57284 c -2.90881,0 -3.57177,-0.16679 -4.00774,-1.00993 -0.24208,-0.46807 -0.26628,-2.15086 -0.22558,-15.85897 l 0.0456,-15.339 0.59256,-0.49487 0.59206,-0.49437 h 5.57564 v -4.99667 l 0.60316,-0.60316 c 0.56816,-0.56817 0.65436,-0.59847 1.4869,-0.51837 0.71765,0.069 0.97444,0.18639 1.36491,0.62316 0.48007,0.53726 0.48077,0.54176 0.48077,3.0168 v 2.47884 h 3.76476 v -4.99667 l 0.58156,-0.58207 c 0.49667,-0.49666 0.69975,-0.58156 1.38591,-0.58156 z m -1.67189,10.11937 c -0.84904,0.002 -1.79788,0.006 -2.86282,0.0125 l -7.95748,0.0486 -0.0456,5.26966 -0.0451,5.26966 17.54886,-0.1004 0.90144,-0.40757 c 1.13293,-0.51187 2.47084,-1.94188 2.84482,-3.0388 0.34937,-1.02494 0.35127,-2.51284 0.005,-3.52877 -0.32568,-0.95594 -1.38891,-2.20586 -2.35685,-2.76982 -1.07393,-0.62596 -2.08586,-0.76425 -8.02948,-0.75406 z m -10.90929,14.67904 v 10.44932 h 8.63544 c 8.30146,0 8.67243,-0.0134 9.57837,-0.35248 1.09793,-0.41077 2.29085,-1.4909 2.84882,-2.57983 0.52356,-1.02193 0.64126,-2.88581 0.25518,-4.04773 -0.36517,-1.09993 -1.34691,-2.21686 -2.51784,-2.86482 l -0.91643,-0.50737 -8.94142,-0.0486 z"
       id="path2302" />
    <path
       style="display:inline;stroke-width:0.28838125"
       d="m 137.1092,193.57058 a 14.90903,13.759105 0 0 1 -7.45252,11.91922 14.90903,13.759105 0 0 1 -14.90903,0 14.90903,13.759105 0 0 1 -7.45251,-11.91922"
       id="path2304" />
    <path
       style="display:inline;stroke-width:0.25668332"
       d="m 122.51015,212.76933 -0.0236,0.0126 -0.003,0.0266 -0.0192,-0.0186 -0.0262,0.005 0.0117,-0.024 -0.0132,-0.0233 0.0265,0.004 0.0181,-0.0197 0.005,0.0263 z"
       id="path2306" />
  </g>
  <g
     transform="translate(-26.725716,-4.0064964)"
     style="display:inline"
     id="layer8">
    <path
       transform="matrix(1.0227138,0,0,1.0923454,-62.375629,65.947121)"
       id="path881"
       d="m 417.75418,91.305305 c 0.11492,0.01602 0.30147,2.65406 -1.96995,7.065173 -1.18252,2.303762 -2.83425,4.780922 -5.26017,7.647652 -4.47428,5.29053 -10.07324,10.37047 -18.26293,16.51899 -10e-6,1e-5 -10e-6,1e-5 -10e-6,1e-5 -7.5874,5.70293 -16.12032,11.31565 -26.48028,17.44383 -9.77203,5.78147 -20.38792,11.54139 -32.29593,17.51615 0,0 -2e-5,0 -2e-5,0 -21.46251,10.76913 -45.49863,21.47405 -72.51905,31.81534 -18.54017,6.41773 -38.51843,12.69676 -59.24977,17.61061 -2.90075,0.68756 -5.79716,1.34397 -8.69067,1.96804 23.80291,-9.03591 44.88549,-22.00281 62.55109,-36.99803 16.44686,-13.16851 31.16583,-29.15313 43.27602,-42.4942 6.77053,-7.46346 12.56643,-13.88219 18.91325,-20.31455 6.75577,-6.84916 13.09084,-12.595564 19.62256,-17.536671 7.90439,-5.979804 15.37746,-10.146508 22.19812,-13.022019 16.45656,-6.931349 26.57612,-5.997937 26.54721,-6.224735 0.0489,0.383406 -10.1113,0.936797 -25.6773,8.188136 -6.55961,3.052955 -13.69854,7.324248 -21.28811,13.35482 -6.27993,4.990095 -12.35885,10.746589 -18.92716,17.640359 -6.19274,6.50183 -11.79745,12.90964 -18.50177,20.49893 -11.96721,13.55538 -26.6296,29.78666 -43.35707,43.38708 -18.36661,14.07934 -40.3388,25.8247 -65.16472,33.46398 2.80548,-0.80413 5.61454,-1.64172 8.42894,-2.51139 20.08696,-6.20696 39.58085,-13.78823 57.69078,-21.29627 26.9538,-10.16825 50.91289,-20.58929 72.41744,-31.03384 0,0 2e-5,-1e-5 2e-5,-1e-5 11.93029,-5.79466 22.53972,-11.335 32.35769,-16.89389 10.42193,-5.90204 18.94455,-11.22372 26.62059,-16.65622 10e-6,0 10e-6,0 10e-6,0 8.31295,-5.89064 13.8725,-10.55381 18.52786,-15.5458 2.50812,-2.69096 4.21882,-4.939082 5.53231,-7.082384 2.42948,-3.976132 2.76704,-6.536137 2.96102,-6.509091 z"
       style="display:inline;opacity:0.35400008;fill:url(#linearGradient2481);fill-opacity:1;stroke:none;stroke-width:0.26458299px;stroke-linecap:butt;stroke-linejoin:miter;stroke-opacity:1" />
    <path
       transform="matrix(1.0227138,0,0,1.0923454,-58.973831,56.875696)"
       style="display:inline;opacity:0.35400008;fill:url(#linearGradient2187);fill-opacity:1;stroke:none;stroke-width:0.26458299px;stroke-linecap:butt;stroke-linejoin:miter;stroke-opacity:1"
       d="m 320.94154,68.186315 c -1.5505,-0.641338 -2.61967,17.929328 -23.55649,38.615375 0,-10e-6 0,0 0,0 -11.60268,11.42216 -28.51844,20.87204 -50.36605,25.23042 -4.05915,0.81475 -8.37264,1.5872 -12.4203,2.67915 -4.41365,1.18774 -8.7895,2.85276 -13.00067,5.01705 -5.66298,2.90506 -11.00467,6.58989 -16.28736,10.7235 -5.02974,3.50244 -9.91384,7.29182 -14.76714,11.31842 -2.89319,2.40037 -5.72709,4.84487 -8.5013,7.29181 5.36752,-5.95602 9.73442,-12.74791 13.23377,-19.77206 3.98577,-6.82922 7.09595,-14.02395 9.64705,-21.06714 4.72124,-13.0294 8.94508,-31.055157 12.06329,-41.967706 1.77987,-6.246109 3.55667,-11.762617 6.04164,-17.003274 2.25125,-4.788307 4.97213,-8.835806 8.62471,-11.743026 1.84766,-1.459574 3.86394,-2.513202 5.89897,-3.16931 2.4679,-0.790335 4.93618,-1.007357 7.14391,-0.928039 6.00194,0.225345 11.26574,2.366774 13.96496,3.588635 3.03609,1.374351 4.50576,2.341961 4.46016,2.437339 -0.0763,0.159606 -1.67104,-0.553123 -4.77249,-1.666973 -2.71786,-0.976089 -8.05611,-2.813468 -13.67857,-2.780221 -2.06761,0.0091 -4.34092,0.286193 -6.53459,1.073261 -1.80899,0.644677 -3.59244,1.649061 -5.21783,3.005096 -3.26668,2.702351 -5.64771,6.525089 -7.75811,11.168747 -2.29955,5.105889 -3.91786,10.498576 -5.59703,16.731723 -2.96543,11.040267 -6.87941,28.787068 -11.65505,42.320698 -2.53976,7.19463 -5.68619,14.58343 -9.76934,21.66062 -4.34787,6.50012 -9.68198,12.7351 -16.11189,18.12765 2.4986,-2.76513 5.06003,-5.53829 7.68747,-8.27338 4.40775,-4.58835 8.87773,-8.94071 13.52639,-13.00267 5.39292,-4.21017 10.93178,-7.99203 16.86026,-11.00702 4.43746,-2.25278 9.03883,-3.9734 13.67482,-5.18784 4.23952,-1.10782 8.61833,-1.8604 12.64561,-2.6302 21.34725,-4.10568 37.86773,-12.96583 49.35699,-23.84031 0,0 0,-1e-5 0,-1e-5 20.13727,-18.988933 24.75069,-37.121359 25.16421,-36.950315 z"
       id="path881-9" />
  </g>
  <g
     style="display:inline"
     transform="translate(95.042874,-2.128963)"
     id="layer1">
    <text
       x="100.8474"
       y="237.30298"
       font-size="96.8px"
       style="font-size:85.28913879px;line-height:1.25;font-family:sans-serif;display:inline;fill:#000000;stroke:#000000;stroke-width:2.13222837"
       xml:space="preserve"
       id="text1366"><tspan
         style="font-family:'DejaVu Sans';stroke:#000000;stroke-width:2.13222837"
         x="100.8474"
         y="237.30298"
         id="tspan1364">FreqAI</tspan></text>
  </g>
</svg>
